# Blockbench MCP; packaged by tools/export_ship_locker.py
mtllib ship_locker.mtl
v 0.611875 0.221875 0.640625
v 0.89 0.221875 0.640625
v 0.8925 0.225625 0.640625
v 0.8925 0.774375 0.640625
v 0.89 0.778125 0.640625
v 0.611875 0.778125 0.640625
v 0.608125 0.774375 0.640625
v 0.608125 0.225625 0.640625
v 0.611875 0.221875 0.68125
v 0.89 0.221875 0.68125
v 0.8925 0.225625 0.68125
v 0.8925 0.774375 0.68125
v 0.89 0.778125 0.68125
v 0.611875 0.778125 0.68125
v 0.608125 0.774375 0.68125
v 0.608125 0.225625 0.68125
v 0.8425 0.271875 0.63
v 0.6525 0.271875 0.63
v 0.6325 0.291875 0.63
v 0.6325 0.70875 0.63
v 0.6525 0.72875 0.63
v 0.8425 0.72875 0.63
v 0.8625 0.70875 0.63
v 0.8625 0.291875 0.63
v 0.8425 0.271875 0.641875
v 0.6525 0.271875 0.641875
v 0.6325 0.291875 0.641875
v 0.6325 0.70875 0.641875
v 0.6525 0.72875 0.641875
v 0.8425 0.72875 0.641875
v 0.8625 0.70875 0.641875
v 0.8625 0.291875 0.641875
v 0.8525 0.426875 0.6225
v 0.83875 0.426875 0.6225
v 0.833125 0.4325 0.6225
v 0.833125 0.575625 0.6225
v 0.83875 0.58125 0.6225
v 0.8525 0.58125 0.6225
v 0.858125 0.575625 0.6225
v 0.858125 0.4325 0.6225
v 0.8525 0.426875 0.633125
v 0.83875 0.426875 0.633125
v 0.833125 0.4325 0.633125
v 0.833125 0.575625 0.633125
v 0.83875 0.58125 0.633125
v 0.8525 0.58125 0.633125
v 0.858125 0.575625 0.633125
v 0.858125 0.4325 0.633125
v 0.8478125 0.6775 0.62375
v 0.7865625 0.6775 0.62375
v 0.784375 0.6796875 0.62375
v 0.784375 0.6896875 0.62375
v 0.7865625 0.691875 0.62375
v 0.8478125 0.691875 0.62375
v 0.85 0.6896875 0.62375
v 0.85 0.6796875 0.62375
v 0.8478125 0.6775 0.631875
v 0.7865625 0.6775 0.631875
v 0.784375 0.6796875 0.631875
v 0.784375 0.6896875 0.631875
v 0.7865625 0.691875 0.631875
v 0.8478125 0.691875 0.631875
v 0.85 0.6896875 0.631875
v 0.85 0.6796875 0.631875
v 0.84375 0.304375 0.6225
v 0.65125 0.304375 0.6225
v 0.645 0.310625 0.6225
v 0.645 0.338125 0.6225
v 0.65125 0.344375 0.6225
v 0.84375 0.344375 0.6225
v 0.85 0.338125 0.6225
v 0.85 0.310625 0.6225
v 0.84375 0.304375 0.63125
v 0.65125 0.304375 0.63125
v 0.645 0.310625 0.63125
v 0.645 0.338125 0.63125
v 0.65125 0.344375 0.63125
v 0.84375 0.344375 0.63125
v 0.85 0.338125 0.63125
v 0.85 0.310625 0.63125
v 0.5946875 0.21875 0.6825
v 0.6178125 0.21875 0.6825
v 0.61875 0.2196875 0.6825
v 0.61875 0.7803125 0.6825
v 0.6178125 0.78125 0.6825
v 0.5946875 0.78125 0.6825
v 0.59375 0.7803125 0.6825
v 0.59375 0.2196875 0.6825
v 0.5946875 0.21875 0.695
v 0.6178125 0.21875 0.695
v 0.61875 0.2196875 0.695
v 0.61875 0.7803125 0.695
v 0.6178125 0.78125 0.695
v 0.5946875 0.78125 0.695
v 0.59375 0.7803125 0.695
v 0.59375 0.2196875 0.695
vt 0.5625 0.1875
vt 0.5625 0.1875
vt 0.5625 0.1875
vt 0.5625 0.1875
vt 0.5625 0.1875
vt 0.5625 0.1875
vt 0.5625 0.1875
vt 0.5625 0.1875
vt 0.5625 0.1875
vt 0.5625 0.1875
vt 0.5625 0.1875
vt 0.5625 0.1875
vt 0.5625 0.1875
vt 0.5625 0.1875
vt 0.5625 0.1875
vt 0.5625 0.1875
vt 0.5625 0.1875
vt 0.5625 0.1875
vt 0.5625 0.1875
vt 0.5625 0.1875
vt 0.5625 0.1875
vt 0.5625 0.1875
vt 0.5625 0.1875
vt 0.5625 0.1875
vt 0.5625 0.1875
vt 0.5625 0.1875
vt 0.5625 0.1875
vt 0.5625 0.1875
vt 0.5625 0.1875
vt 0.5625 0.1875
vt 0.5625 0.1875
vt 0.5625 0.1875
vt 0.5625 0.1875
vt 0.5625 0.1875
vt 0.5625 0.1875
vt 0.5625 0.1875
vt 0.5625 0.1875
vt 0.5625 0.1875
vt 0.5625 0.1875
vt 0.5625 0.1875
vt 0.5625 0.1875
vt 0.5625 0.1875
vt 0.5625 0.1875
vt 0.5625 0.1875
vt 0.5625 0.1875
vt 0.5625 0.1875
vt 0.5625 0.1875
vt 0.5625 0.1875
vt 0.5625 0.1875
vt 0.5625 0.1875
vt 0.5625 0.1875
vt 0.5625 0.1875
vt 0.5625 0.1875
vt 0.5625 0.1875
vt 0.5625 0.1875
vt 0.5625 0.1875
vt 0.5625 0.1875
vt 0.5625 0.1875
vt 0.5625 0.1875
vt 0.5625 0.1875
vt 0.5625 0.1875
vt 0.5625 0.1875
vt 0.5625 0.1875
vt 0.5625 0.1875
vt 0.5625 0.1875
vt 0.5625 0.1875
vt 0.5625 0.1875
vt 0.5625 0.1875
vt 0.226647418 0.501953125
vt 0.248046875 0.523669951
vt 0.0233525815 0.501953125
vt 0.5625 0.1875
vt 0.5625 0.1875
vt 0.5625 0.1875
vt 0.248046875 0.523669951
vt 0.248046875 0.976330049
vt 0.0233525815 0.501953125
vt 0.5625 0.1875
vt 0.5625 0.1875
vt 0.5625 0.1875
vt 0.248046875 0.976330049
vt 0.226647418 0.998046875
vt 0.0233525815 0.501953125
vt 0.5625 0.1875
vt 0.5625 0.1875
vt 0.5625 0.1875
vt 0.226647418 0.998046875
vt 0.0233525815 0.998046875
vt 0.0233525815 0.501953125
vt 0.5625 0.1875
vt 0.5625 0.1875
vt 0.5625 0.1875
vt 0.0233525815 0.998046875
vt 0.001953125 0.976330049
vt 0.0233525815 0.501953125
vt 0.5625 0.1875
vt 0.5625 0.1875
vt 0.5625 0.1875
vt 0.001953125 0.976330049
vt 0.001953125 0.523669951
vt 0.0233525815 0.501953125
vt 0.5625 0.1875
vt 0.5625 0.1875
vt 0.5625 0.1875
vt 0.5625 0.1875
vt 0.5625 0.1875
vt 0.5625 0.1875
vt 0.5625 0.1875
vt 0.5625 0.1875
vt 0.5625 0.1875
vt 0.5625 0.1875
vt 0.5625 0.1875
vt 0.5625 0.1875
vt 0.5625 0.1875
vt 0.5625 0.1875
vt 0.5625 0.1875
vt 0.5625 0.1875
vt 0.5625 0.1875
vt 0.5625 0.1875
vt 0.5625 0.1875
vt 0.5625 0.1875
vt 0.5625 0.1875
vt 0.5625 0.1875
vt 0.5625 0.1875
vt 0.5625 0.1875
vt 0.5625 0.1875
vt 0.5625 0.1875
vt 0.5625 0.1875
vt 0.5625 0.1875
vt 0.5625 0.1875
vt 0.5625 0.1875
vt 0.5625 0.1875
vt 0.5625 0.1875
vt 0.5625 0.1875
vt 0.5625 0.1875
vt 0.5625 0.1875
vt 0.8125 0.1875
vt 0.8125 0.1875
vt 0.8125 0.1875
vt 0.8125 0.1875
vt 0.8125 0.1875
vt 0.8125 0.1875
vt 0.8125 0.1875
vt 0.8125 0.1875
vt 0.8125 0.1875
vt 0.8125 0.1875
vt 0.8125 0.1875
vt 0.8125 0.1875
vt 0.8125 0.1875
vt 0.8125 0.1875
vt 0.8125 0.1875
vt 0.8125 0.1875
vt 0.8125 0.1875
vt 0.8125 0.1875
vt 0.8125 0.1875
vt 0.8125 0.1875
vt 0.8125 0.1875
vt 0.8125 0.1875
vt 0.8125 0.1875
vt 0.8125 0.1875
vt 0.8125 0.1875
vt 0.8125 0.1875
vt 0.8125 0.1875
vt 0.8125 0.1875
vt 0.8125 0.1875
vt 0.8125 0.1875
vt 0.8125 0.1875
vt 0.8125 0.1875
vt 0.8125 0.1875
vt 0.8125 0.1875
vt 0.8125 0.1875
vt 0.8125 0.1875
vt 0.8125 0.1875
vt 0.8125 0.1875
vt 0.8125 0.1875
vt 0.8125 0.1875
vt 0.8125 0.1875
vt 0.8125 0.1875
vt 0.8125 0.1875
vt 0.8125 0.1875
vt 0.8125 0.1875
vt 0.8125 0.1875
vt 0.8125 0.1875
vt 0.8125 0.1875
vt 0.8125 0.1875
vt 0.8125 0.1875
vt 0.8125 0.1875
vt 0.8125 0.1875
vt 0.8125 0.1875
vt 0.8125 0.1875
vt 0.8125 0.1875
vt 0.8125 0.1875
vt 0.8125 0.1875
vt 0.8125 0.1875
vt 0.8125 0.1875
vt 0.8125 0.1875
vt 0.8125 0.1875
vt 0.8125 0.1875
vt 0.8125 0.1875
vt 0.8125 0.1875
vt 0.8125 0.1875
vt 0.8125 0.1875
vt 0.8125 0.1875
vt 0.8125 0.1875
vt 0.3125 0.0625
vt 0.3125 0.0625
vt 0.3125 0.0625
vt 0.3125 0.0625
vt 0.3125 0.0625
vt 0.3125 0.0625
vt 0.3125 0.0625
vt 0.3125 0.0625
vt 0.3125 0.0625
vt 0.3125 0.0625
vt 0.3125 0.0625
vt 0.3125 0.0625
vt 0.3125 0.0625
vt 0.3125 0.0625
vt 0.3125 0.0625
vt 0.3125 0.0625
vt 0.3125 0.0625
vt 0.3125 0.0625
vt 0.3125 0.0625
vt 0.3125 0.0625
vt 0.3125 0.0625
vt 0.3125 0.0625
vt 0.3125 0.0625
vt 0.3125 0.0625
vt 0.3125 0.0625
vt 0.3125 0.0625
vt 0.3125 0.0625
vt 0.3125 0.0625
vt 0.3125 0.0625
vt 0.3125 0.0625
vt 0.3125 0.0625
vt 0.3125 0.0625
vt 0.3125 0.0625
vt 0.3125 0.0625
vt 0.3125 0.0625
vt 0.3125 0.0625
vt 0.3125 0.0625
vt 0.3125 0.0625
vt 0.3125 0.0625
vt 0.3125 0.0625
vt 0.3125 0.0625
vt 0.3125 0.0625
vt 0.3125 0.0625
vt 0.3125 0.0625
vt 0.3125 0.0625
vt 0.3125 0.0625
vt 0.3125 0.0625
vt 0.3125 0.0625
vt 0.3125 0.0625
vt 0.3125 0.0625
vt 0.3125 0.0625
vt 0.3125 0.0625
vt 0.3125 0.0625
vt 0.3125 0.0625
vt 0.3125 0.0625
vt 0.3125 0.0625
vt 0.3125 0.0625
vt 0.3125 0.0625
vt 0.3125 0.0625
vt 0.3125 0.0625
vt 0.3125 0.0625
vt 0.3125 0.0625
vt 0.3125 0.0625
vt 0.3125 0.0625
vt 0.3125 0.0625
vt 0.3125 0.0625
vt 0.3125 0.0625
vt 0.3125 0.0625
vt 0.1875 0.0625
vt 0.1875 0.0625
vt 0.1875 0.0625
vt 0.1875 0.0625
vt 0.1875 0.0625
vt 0.1875 0.0625
vt 0.1875 0.0625
vt 0.1875 0.0625
vt 0.1875 0.0625
vt 0.1875 0.0625
vt 0.1875 0.0625
vt 0.1875 0.0625
vt 0.1875 0.0625
vt 0.1875 0.0625
vt 0.1875 0.0625
vt 0.1875 0.0625
vt 0.1875 0.0625
vt 0.1875 0.0625
vt 0.1875 0.0625
vt 0.1875 0.0625
vt 0.1875 0.0625
vt 0.1875 0.0625
vt 0.1875 0.0625
vt 0.1875 0.0625
vt 0.1875 0.0625
vt 0.1875 0.0625
vt 0.1875 0.0625
vt 0.1875 0.0625
vt 0.1875 0.0625
vt 0.1875 0.0625
vt 0.1875 0.0625
vt 0.1875 0.0625
vt 0.1875 0.0625
vt 0.1875 0.0625
vt 0.1875 0.0625
vt 0.1875 0.0625
vt 0.1875 0.0625
vt 0.1875 0.0625
vt 0.1875 0.0625
vt 0.1875 0.0625
vt 0.1875 0.0625
vt 0.1875 0.0625
vt 0.1875 0.0625
vt 0.1875 0.0625
vt 0.1875 0.0625
vt 0.1875 0.0625
vt 0.1875 0.0625
vt 0.1875 0.0625
vt 0.1875 0.0625
vt 0.1875 0.0625
vt 0.1875 0.0625
vt 0.1875 0.0625
vt 0.1875 0.0625
vt 0.1875 0.0625
vt 0.1875 0.0625
vt 0.1875 0.0625
vt 0.1875 0.0625
vt 0.1875 0.0625
vt 0.1875 0.0625
vt 0.1875 0.0625
vt 0.1875 0.0625
vt 0.1875 0.0625
vt 0.1875 0.0625
vt 0.1875 0.0625
vt 0.1875 0.0625
vt 0.1875 0.0625
vt 0.1875 0.0625
vt 0.1875 0.0625
vt 0.8125 0.1875
vt 0.8125 0.1875
vt 0.8125 0.1875
vt 0.8125 0.1875
vt 0.8125 0.1875
vt 0.8125 0.1875
vt 0.8125 0.1875
vt 0.8125 0.1875
vt 0.8125 0.1875
vt 0.8125 0.1875
vt 0.8125 0.1875
vt 0.8125 0.1875
vt 0.8125 0.1875
vt 0.8125 0.1875
vt 0.8125 0.1875
vt 0.8125 0.1875
vt 0.8125 0.1875
vt 0.8125 0.1875
vt 0.8125 0.1875
vt 0.8125 0.1875
vt 0.8125 0.1875
vt 0.8125 0.1875
vt 0.8125 0.1875
vt 0.8125 0.1875
vt 0.8125 0.1875
vt 0.8125 0.1875
vt 0.8125 0.1875
vt 0.8125 0.1875
vt 0.8125 0.1875
vt 0.8125 0.1875
vt 0.8125 0.1875
vt 0.8125 0.1875
vt 0.8125 0.1875
vt 0.8125 0.1875
vt 0.8125 0.1875
vt 0.8125 0.1875
vt 0.8125 0.1875
vt 0.8125 0.1875
vt 0.8125 0.1875
vt 0.8125 0.1875
vt 0.8125 0.1875
vt 0.8125 0.1875
vt 0.8125 0.1875
vt 0.8125 0.1875
vt 0.8125 0.1875
vt 0.8125 0.1875
vt 0.8125 0.1875
vt 0.8125 0.1875
vt 0.8125 0.1875
vt 0.8125 0.1875
vt 0.8125 0.1875
vt 0.8125 0.1875
vt 0.8125 0.1875
vt 0.8125 0.1875
vt 0.8125 0.1875
vt 0.8125 0.1875
vt 0.8125 0.1875
vt 0.8125 0.1875
vt 0.8125 0.1875
vt 0.8125 0.1875
vt 0.8125 0.1875
vt 0.8125 0.1875
vt 0.8125 0.1875
vt 0.8125 0.1875
vt 0.8125 0.1875
vt 0.8125 0.1875
vt 0.8125 0.1875
vt 0.8125 0.1875
vn 0 0 -1
vn 0 0 1
vn 0 0 -1
vn 0 0 1
vn 0 0 -1
vn 0 0 1
vn 0 0 -1
vn 0 0 1
vn 0 0 -1
vn 0 0 1
vn 0 0 -1
vn 0 0 1
vn 0 -1 0
vn 0.832050294 -0.554700196 0
vn 1 0 0
vn 0.832050294 0.554700196 0
vn 0 1 0
vn -0.707106781 0.707106781 0
vn -1 0 0
vn -0.707106781 -0.707106781 0
vn 0 0 -1
vn 0 0 1
vn 0 0 -1
vn 0 0 1
vn 0 0 -1
vn 0 0 1
vn 0 0 -1
vn 0 0 1
vn 0 0 -1
vn 0 0 1
vn 0 0 -1
vn 0 0 1
vn 0 -1 0
vn -0.707106781 -0.707106781 0
vn -1 0 0
vn -0.707106781 0.707106781 0
vn 0 1 0
vn 0.707106781 0.707106781 0
vn 1 0 0
vn 0.707106781 -0.707106781 0
vn 0 0 -1
vn 0 0 1
vn 0 0 -1
vn 0 0 1
vn 0 0 -1
vn 0 0 1
vn 0 0 -1
vn 0 0 1
vn 0 0 -1
vn 0 0 1
vn 0 0 -1
vn 0 0 1
vn 0 -1 0
vn -0.707106781 -0.707106781 0
vn -1 0 0
vn -0.707106781 0.707106781 0
vn 0 1 0
vn 0.707106781 0.707106781 0
vn 1 0 0
vn 0.707106781 -0.707106781 0
vn 0 0 -1
vn 0 0 1
vn 0 0 -1
vn 0 0 1
vn 0 0 -1
vn 0 0 1
vn 0 0 -1
vn 0 0 1
vn 0 0 -1
vn 0 0 1
vn 0 0 -1
vn 0 0 1
vn 0 -1 0
vn -0.707106781 -0.707106781 0
vn -1 0 0
vn -0.707106781 0.707106781 0
vn 0 1 0
vn 0.707106781 0.707106781 0
vn 1 0 0
vn 0.707106781 -0.707106781 0
vn 0 0 -1
vn 0 0 1
vn 0 0 -1
vn 0 0 1
vn 0 0 -1
vn 0 0 1
vn 0 0 -1
vn 0 0 1
vn 0 0 -1
vn 0 0 1
vn 0 0 -1
vn 0 0 1
vn 0 -1 0
vn -0.707106781 -0.707106781 0
vn -1 0 0
vn -0.707106781 0.707106781 0
vn 0 1 0
vn 0.707106781 0.707106781 0
vn 1 0 0
vn 0.707106781 -0.707106781 0
vn 0 0 -1
vn 0 0 1
vn 0 0 -1
vn 0 0 1
vn 0 0 -1
vn 0 0 1
vn 0 0 -1
vn 0 0 1
vn 0 0 -1
vn 0 0 1
vn 0 0 -1
vn 0 0 1
vn 0 -1 0
vn 0.707106781 -0.707106781 0
vn 1 0 0
vn 0.707106781 0.707106781 0
vn 0 1 0
vn -0.707106781 0.707106781 0
vn -1 0 0
vn -0.707106781 -0.707106781 0
o left_sliding_door_0
usemtl locker_surface_atlas
f 1/1/1 3/2/1 2/3/1
f 9/4/2 10/5/2 11/6/2
f 1/7/3 4/8/3 3/9/3
f 9/10/4 11/11/4 12/12/4
f 1/13/5 5/14/5 4/15/5
f 9/16/6 12/17/6 13/18/6
f 1/19/7 6/20/7 5/21/7
f 9/22/8 13/23/8 14/24/8
f 1/25/9 7/26/9 6/27/9
f 9/28/10 14/29/10 15/30/10
f 1/31/11 8/32/11 7/33/11
f 9/34/12 15/35/12 16/36/12
f 1/37/13 2/38/13 10/39/13 9/40/13
f 2/41/14 3/42/14 11/43/14 10/44/14
f 3/45/15 4/46/15 12/47/15 11/48/15
f 4/49/16 5/50/16 13/51/16 12/52/16
f 5/53/17 6/54/17 14/55/17 13/56/17
f 6/57/18 7/58/18 15/59/18 14/60/18
f 7/61/19 8/62/19 16/63/19 15/64/19
f 8/65/20 1/66/20 9/67/20 16/68/20
o door_inset_0_1
f 18/69/21 19/70/21 17/71/21
f 27/72/22 26/73/22 25/74/22
f 19/75/23 20/76/23 17/77/23
f 28/78/24 27/79/24 25/80/24
f 20/81/25 21/82/25 17/83/25
f 29/84/26 28/85/26 25/86/26
f 21/87/27 22/88/27 17/89/27
f 30/90/28 29/91/28 25/92/28
f 22/93/29 23/94/29 17/95/29
f 31/96/30 30/97/30 25/98/30
f 23/99/31 24/100/31 17/101/31
f 32/102/32 31/103/32 25/104/32
f 25/105/33 26/106/33 18/107/33 17/108/33
f 26/109/34 27/110/34 19/111/34 18/112/34
f 27/113/35 28/114/35 20/115/35 19/116/35
f 28/117/36 29/118/36 21/119/36 20/120/36
f 29/121/37 30/122/37 22/123/37 21/124/37
f 30/125/38 31/126/38 23/127/38 22/128/38
f 31/129/39 32/130/39 24/131/39 23/132/39
f 32/133/40 25/134/40 17/135/40 24/136/40
o recessed_pull_0_2
f 34/137/41 35/138/41 33/139/41
f 43/140/42 42/141/42 41/142/42
f 35/143/43 36/144/43 33/145/43
f 44/146/44 43/147/44 41/148/44
f 36/149/45 37/150/45 33/151/45
f 45/152/46 44/153/46 41/154/46
f 37/155/47 38/156/47 33/157/47
f 46/158/48 45/159/48 41/160/48
f 38/161/49 39/162/49 33/163/49
f 47/164/50 46/165/50 41/166/50
f 39/167/51 40/168/51 33/169/51
f 48/170/52 47/171/52 41/172/52
f 41/173/53 42/174/53 34/175/53 33/176/53
f 42/177/54 43/178/54 35/179/54 34/180/54
f 43/181/55 44/182/55 36/183/55 35/184/55
f 44/185/56 45/186/56 37/187/56 36/188/56
f 45/189/57 46/190/57 38/191/57 37/192/57
f 46/193/58 47/194/58 39/195/58 38/196/58
f 47/197/59 48/198/59 40/199/59 39/200/59
f 48/201/60 41/202/60 33/203/60 40/204/60
o door_upper_marking_0_3
f 50/205/61 51/206/61 49/207/61
f 59/208/62 58/209/62 57/210/62
f 51/211/63 52/212/63 49/213/63
f 60/214/64 59/215/64 57/216/64
f 52/217/65 53/218/65 49/219/65
f 61/220/66 60/221/66 57/222/66
f 53/223/67 54/224/67 49/225/67
f 62/226/68 61/227/68 57/228/68
f 54/229/69 55/230/69 49/231/69
f 63/232/70 62/233/70 57/234/70
f 55/235/71 56/236/71 49/237/71
f 64/238/72 63/239/72 57/240/72
f 57/241/73 58/242/73 50/243/73 49/244/73
f 58/245/74 59/246/74 51/247/74 50/248/74
f 59/249/75 60/250/75 52/251/75 51/252/75
f 60/253/76 61/254/76 53/255/76 52/256/76
f 61/257/77 62/258/77 54/259/77 53/260/77
f 62/261/78 63/262/78 55/263/78 54/264/78
f 63/265/79 64/266/79 56/267/79 55/268/79
f 64/269/80 57/270/80 49/271/80 56/272/80
o door_lower_raised_panel_0_4
f 66/273/81 67/274/81 65/275/81
f 75/276/82 74/277/82 73/278/82
f 67/279/83 68/280/83 65/281/83
f 76/282/84 75/283/84 73/284/84
f 68/285/85 69/286/85 65/287/85
f 77/288/86 76/289/86 73/290/86
f 69/291/87 70/292/87 65/293/87
f 78/294/88 77/295/88 73/296/88
f 70/297/89 71/298/89 65/299/89
f 79/300/90 78/301/90 73/302/90
f 71/303/91 72/304/91 65/305/91
f 80/306/92 79/307/92 73/308/92
f 73/309/93 74/310/93 66/311/93 65/312/93
f 74/313/94 75/314/94 67/315/94 66/316/94
f 75/317/95 76/318/95 68/319/95 67/320/95
f 76/321/96 77/322/96 69/323/96 68/324/96
f 77/325/97 78/326/97 70/327/97 69/328/97
f 78/329/98 79/330/98 71/331/98 70/332/98
f 79/333/99 80/334/99 72/335/99 71/336/99
f 80/337/100 73/338/100 65/339/100 72/340/100
o door_seam_overlap_lip_5
f 81/341/101 83/342/101 82/343/101
f 89/344/102 90/345/102 91/346/102
f 81/347/103 84/348/103 83/349/103
f 89/350/104 91/351/104 92/352/104
f 81/353/105 85/354/105 84/355/105
f 89/356/106 92/357/106 93/358/106
f 81/359/107 86/360/107 85/361/107
f 89/362/108 93/363/108 94/364/108
f 81/365/109 87/366/109 86/367/109
f 89/368/110 94/369/110 95/370/110
f 81/371/111 88/372/111 87/373/111
f 89/374/112 95/375/112 96/376/112
f 81/377/113 82/378/113 90/379/113 89/380/113
f 82/381/114 83/382/114 91/383/114 90/384/114
f 83/385/115 84/386/115 92/387/115 91/388/115
f 84/389/116 85/390/116 93/391/116 92/392/116
f 85/393/117 86/394/117 94/395/117 93/396/117
f 86/397/118 87/398/118 95/399/118 94/400/118
f 87/401/119 88/402/119 96/403/119 95/404/119
f 88/405/120 81/406/120 89/407/120 96/408/120
