# Actual Blockbench MCP geometry; packaged by tools/export_transporter.py
mtllib transporter.mtl
v 0.098125 0 0.840625
v 0.901875 0 0.840625
v 0.921875 0 0.860625
v 0.921875 0 0.970625
v 0.901875 0 0.990625
v 0.098125 0 0.990625
v 0.078125 0 0.970625
v 0.078125 0 0.860625
v 0.098125 0 0.840625
v 0.901875 0 0.840625
v 0.921875 0 0.860625
v 0.921875 0 0.970625
v 0.901875 0 0.990625
v 0.098125 0 0.990625
v 0.078125 0 0.970625
v 0.078125 0 0.860625
v 0.098125 1 0.840625
v 0.901875 1 0.840625
v 0.921875 1 0.860625
v 0.921875 1 0.970625
v 0.901875 1 0.990625
v 0.098125 1 0.990625
v 0.078125 1 0.970625
v 0.078125 1 0.860625
v 0.098125 1 0.840625
v 0.901875 1 0.840625
v 0.921875 1 0.860625
v 0.921875 1 0.970625
v 0.901875 1 0.990625
v 0.098125 1 0.990625
v 0.078125 1 0.970625
v 0.078125 1 0.860625
v 0.5 0 0.915625
v 0.5 1 0.915625
v 0.196875 0 0.82625
v 0.803125 0 0.82625
v 0.809375 0 0.8325
v 0.809375 0 0.83625
v 0.803125 0 0.8425
v 0.196875 0 0.8425
v 0.190625 0 0.83625
v 0.190625 0 0.8325
v 0.196875 0 0.82625
v 0.803125 0 0.82625
v 0.809375 0 0.8325
v 0.809375 0 0.83625
v 0.803125 0 0.8425
v 0.196875 0 0.8425
v 0.190625 0 0.83625
v 0.190625 0 0.8325
v 0.196875 1 0.82625
v 0.803125 1 0.82625
v 0.809375 1 0.8325
v 0.809375 1 0.83625
v 0.803125 1 0.8425
v 0.196875 1 0.8425
v 0.190625 1 0.83625
v 0.190625 1 0.8325
v 0.196875 1 0.82625
v 0.803125 1 0.82625
v 0.809375 1 0.8325
v 0.809375 1 0.83625
v 0.803125 1 0.8425
v 0.196875 1 0.8425
v 0.190625 1 0.83625
v 0.190625 1 0.8325
v 0.5 0 0.834375
v 0.5 1 0.834375
v 0.13375 0 0.820625
v 0.15375 0 0.820625
v 0.159375 0 0.82625
v 0.159375 0 0.8375
v 0.15375 0 0.843125
v 0.13375 0 0.843125
v 0.128125 0 0.8375
v 0.128125 0 0.82625
v 0.13375 0 0.820625
v 0.15375 0 0.820625
v 0.159375 0 0.82625
v 0.159375 0 0.8375
v 0.15375 0 0.843125
v 0.13375 0 0.843125
v 0.128125 0 0.8375
v 0.128125 0 0.82625
v 0.13375 1 0.820625
v 0.15375 1 0.820625
v 0.159375 1 0.82625
v 0.159375 1 0.8375
v 0.15375 1 0.843125
v 0.13375 1 0.843125
v 0.128125 1 0.8375
v 0.128125 1 0.82625
v 0.13375 1 0.820625
v 0.15375 1 0.820625
v 0.159375 1 0.82625
v 0.159375 1 0.8375
v 0.15375 1 0.843125
v 0.13375 1 0.843125
v 0.128125 1 0.8375
v 0.128125 1 0.82625
v 0.14375 0 0.831875
v 0.14375 1 0.831875
v 0.14 0 0.81875
v 0.1475 0 0.81875
v 0.1496875 0 0.8209375
v 0.1496875 0 0.8240625
v 0.1475 0 0.82625
v 0.14 0 0.82625
v 0.1378125 0 0.8240625
v 0.1378125 0 0.8209375
v 0.14 0 0.81875
v 0.1475 0 0.81875
v 0.1496875 0 0.8209375
v 0.1496875 0 0.8240625
v 0.1475 0 0.82625
v 0.14 0 0.82625
v 0.1378125 0 0.8240625
v 0.1378125 0 0.8209375
v 0.14 1 0.81875
v 0.1475 1 0.81875
v 0.1496875 1 0.8209375
v 0.1496875 1 0.8240625
v 0.1475 1 0.82625
v 0.14 1 0.82625
v 0.1378125 1 0.8240625
v 0.1378125 1 0.8209375
v 0.14 1 0.81875
v 0.1475 1 0.81875
v 0.1496875 1 0.8209375
v 0.1496875 1 0.8240625
v 0.1475 1 0.82625
v 0.14 1 0.82625
v 0.1378125 1 0.8240625
v 0.1378125 1 0.8209375
v 0.14375 0 0.8225
v 0.14375 1 0.8225
v 0.824375 0 0.820625
v 0.844375 0 0.820625
v 0.85 0 0.82625
v 0.85 0 0.8375
v 0.844375 0 0.843125
v 0.824375 0 0.843125
v 0.81875 0 0.8375
v 0.81875 0 0.82625
v 0.824375 0 0.820625
v 0.844375 0 0.820625
v 0.85 0 0.82625
v 0.85 0 0.8375
v 0.844375 0 0.843125
v 0.824375 0 0.843125
v 0.81875 0 0.8375
v 0.81875 0 0.82625
v 0.824375 1 0.820625
v 0.844375 1 0.820625
v 0.85 1 0.82625
v 0.85 1 0.8375
v 0.844375 1 0.843125
v 0.824375 1 0.843125
v 0.81875 1 0.8375
v 0.81875 1 0.82625
v 0.824375 1 0.820625
v 0.844375 1 0.820625
v 0.85 1 0.82625
v 0.85 1 0.8375
v 0.844375 1 0.843125
v 0.824375 1 0.843125
v 0.81875 1 0.8375
v 0.81875 1 0.82625
v 0.834375 0 0.831875
v 0.834375 1 0.831875
v 0.830625 0 0.81875
v 0.838125 0 0.81875
v 0.8403125 0 0.8209375
v 0.8403125 0 0.8240625
v 0.838125 0 0.82625
v 0.830625 0 0.82625
v 0.8284375 0 0.8240625
v 0.8284375 0 0.8209375
v 0.830625 0 0.81875
v 0.838125 0 0.81875
v 0.8403125 0 0.8209375
v 0.8403125 0 0.8240625
v 0.838125 0 0.82625
v 0.830625 0 0.82625
v 0.8284375 0 0.8240625
v 0.8284375 0 0.8209375
v 0.830625 1 0.81875
v 0.838125 1 0.81875
v 0.8403125 1 0.8209375
v 0.8403125 1 0.8240625
v 0.838125 1 0.82625
v 0.830625 1 0.82625
v 0.8284375 1 0.8240625
v 0.8284375 1 0.8209375
v 0.830625 1 0.81875
v 0.838125 1 0.81875
v 0.8403125 1 0.8209375
v 0.8403125 1 0.8240625
v 0.838125 1 0.82625
v 0.830625 1 0.82625
v 0.8284375 1 0.8240625
v 0.8284375 1 0.8209375
v 0.834375 0 0.8225
v 0.834375 1 0.8225
v 0.27 0.4375 0.8096875
v 0.73 0.4375 0.8096875
v 0.7353125 0.4375 0.815
v 0.7353125 0.4375 0.83
v 0.73 0.4375 0.8353125
v 0.27 0.4375 0.8353125
v 0.2646875 0.4375 0.83
v 0.2646875 0.4375 0.815
v 0.27 0.4396875 0.8075
v 0.73 0.4396875 0.8075
v 0.7375 0.4396875 0.815
v 0.7375 0.4396875 0.83
v 0.73 0.4396875 0.8375
v 0.27 0.4396875 0.8375
v 0.2625 0.4396875 0.83
v 0.2625 0.4396875 0.815
v 0.27 0.8603125 0.8075
v 0.73 0.8603125 0.8075
v 0.7375 0.8603125 0.815
v 0.7375 0.8603125 0.83
v 0.73 0.8603125 0.8375
v 0.27 0.8603125 0.8375
v 0.2625 0.8603125 0.83
v 0.2625 0.8603125 0.815
v 0.27 0.8625 0.8096875
v 0.73 0.8625 0.8096875
v 0.7353125 0.8625 0.815
v 0.7353125 0.8625 0.83
v 0.73 0.8625 0.8353125
v 0.27 0.8625 0.8353125
v 0.2646875 0.8625 0.83
v 0.2646875 0.8625 0.815
v 0.5 0.4375 0.8225
v 0.5 0.8625 0.8225
v 0.7196875 0.843 0.805
v 0.2803125 0.45625 0.80575
v 0.7196875 0.45625 0.80575
v 0.721125 0.45625 0.8071875
v 0.721125 0.45625 0.8090625
v 0.7196875 0.45625 0.8105
v 0.2803125 0.45625 0.8105
v 0.278875 0.45625 0.8090625
v 0.278875 0.45625 0.8071875
v 0.2803125 0.457 0.805
v 0.7196875 0.457 0.805
v 0.721875 0.457 0.8071875
v 0.721875 0.457 0.8090625
v 0.7196875 0.457 0.81125
v 0.2803125 0.457 0.81125
v 0.278125 0.457 0.8090625
v 0.278125 0.457 0.8071875
v 0.2803125 0.843 0.805
v 0.721875 0.843 0.8071875
v 0.721875 0.843 0.8090625
v 0.7196875 0.843 0.81125
v 0.2803125 0.843 0.81125
v 0.278125 0.843 0.8090625
v 0.278125 0.843 0.8071875
v 0.2803125 0.84375 0.80575
v 0.7196875 0.84375 0.80575
v 0.721125 0.84375 0.8071875
v 0.721125 0.84375 0.8090625
v 0.7196875 0.84375 0.8105
v 0.2803125 0.84375 0.8105
v 0.278875 0.84375 0.8090625
v 0.278875 0.84375 0.8071875
v 0.5 0.45625 0.808125
v 0.5 0.84375 0.808125
v 0.3215625 0.075 0.8209375
v 0.6784375 0.075 0.8209375
v 0.6803125 0.075 0.8228125
v 0.6803125 0.075 0.8265625
v 0.6784375 0.075 0.8284375
v 0.3215625 0.075 0.8284375
v 0.3196875 0.075 0.8265625
v 0.3196875 0.075 0.8228125
v 0.3215625 0.0759375 0.82
v 0.6784375 0.0759375 0.82
v 0.68125 0.0759375 0.8228125
v 0.68125 0.0759375 0.8265625
v 0.6784375 0.0759375 0.829375
v 0.3215625 0.0759375 0.829375
v 0.31875 0.0759375 0.8265625
v 0.31875 0.0759375 0.8228125
v 0.3215625 0.2990625 0.82
v 0.6784375 0.2990625 0.82
v 0.68125 0.2990625 0.8228125
v 0.68125 0.2990625 0.8265625
v 0.6784375 0.2990625 0.829375
v 0.3215625 0.2990625 0.829375
v 0.31875 0.2990625 0.8265625
v 0.31875 0.2990625 0.8228125
v 0.3215625 0.3 0.8209375
v 0.6784375 0.3 0.8209375
v 0.6803125 0.3 0.8228125
v 0.6803125 0.3 0.8265625
v 0.6784375 0.3 0.8284375
v 0.3215625 0.3 0.8284375
v 0.3196875 0.3 0.8265625
v 0.3196875 0.3 0.8228125
v 0.5 0.075 0.8246875
v 0.5 0.3 0.8246875
vt 0.0625 0.9375
vt 0.9375 0.9375
vt 0.9375 0.0625
vt 0.0625 0.0625
vt 0.0625 0.9375
vt 0.9375 0.9375
vt 0.9375 0.0625
vt 0.0625 0.0625
vt 0.0625 0.9375
vt 0.9375 0.9375
vt 0.9375 0.0625
vt 0.0625 0.0625
vt 0.0625 0.9375
vt 0.9375 0.9375
vt 0.9375 0.0625
vt 0.0625 0.0625
vt 0.0625 0.9375
vt 0.9375 0.9375
vt 0.9375 0.0625
vt 0.0625 0.0625
vt 0.0625 0.9375
vt 0.9375 0.9375
vt 0.9375 0.0625
vt 0.0625 0.0625
vt 0.0625 0.9375
vt 0.9375 0.9375
vt 0.9375 0.0625
vt 0.0625 0.0625
vt 0.0625 0.9375
vt 0.9375 0.9375
vt 0.9375 0.0625
vt 0.0625 0.0625
vt 0.0625 0.9375
vt 0.9375 0.9375
vt 0.9375 0.0625
vt 0.0625 0.9375
vt 0.9375 0.9375
vt 0.9375 0.0625
vt 0.0625 0.9375
vt 0.9375 0.9375
vt 0.9375 0.0625
vt 0.0625 0.9375
vt 0.9375 0.9375
vt 0.9375 0.0625
vt 0.0625 0.9375
vt 0.9375 0.9375
vt 0.9375 0.0625
vt 0.0625 0.9375
vt 0.9375 0.9375
vt 0.9375 0.0625
vt 0.0625 0.9375
vt 0.9375 0.9375
vt 0.9375 0.0625
vt 0.0625 0.9375
vt 0.9375 0.9375
vt 0.9375 0.0625
vt 0.0625 0.9375
vt 0.9375 0.9375
vt 0.9375 0.0625
vt 0.0625 0.9375
vt 0.9375 0.9375
vt 0.9375 0.0625
vt 0.0625 0.9375
vt 0.9375 0.9375
vt 0.9375 0.0625
vt 0.0625 0.9375
vt 0.9375 0.9375
vt 0.9375 0.0625
vt 0.0625 0.9375
vt 0.9375 0.9375
vt 0.9375 0.0625
vt 0.0625 0.9375
vt 0.9375 0.9375
vt 0.9375 0.0625
vt 0.0625 0.9375
vt 0.9375 0.9375
vt 0.9375 0.0625
vt 0.0625 0.9375
vt 0.9375 0.9375
vt 0.9375 0.0625
vt 0.0625 0.9375
vt 0.9375 0.9375
vt 0.9375 0.0625
vt 0.0625 0.0625
vt 0.0625 0.9375
vt 0.9375 0.9375
vt 0.9375 0.0625
vt 0.0625 0.0625
vt 0.0625 0.9375
vt 0.9375 0.9375
vt 0.9375 0.0625
vt 0.0625 0.0625
vt 0.0625 0.9375
vt 0.9375 0.9375
vt 0.9375 0.0625
vt 0.0625 0.0625
vt 0.0625 0.9375
vt 0.9375 0.9375
vt 0.9375 0.0625
vt 0.0625 0.0625
vt 0.0625 0.9375
vt 0.9375 0.9375
vt 0.9375 0.0625
vt 0.0625 0.0625
vt 0.0625 0.9375
vt 0.9375 0.9375
vt 0.9375 0.0625
vt 0.0625 0.0625
vt 0.0625 0.9375
vt 0.9375 0.9375
vt 0.9375 0.0625
vt 0.0625 0.0625
vt 0.0625 0.9375
vt 0.9375 0.9375
vt 0.9375 0.0625
vt 0.0625 0.9375
vt 0.9375 0.9375
vt 0.9375 0.0625
vt 0.0625 0.9375
vt 0.9375 0.9375
vt 0.9375 0.0625
vt 0.0625 0.9375
vt 0.9375 0.9375
vt 0.9375 0.0625
vt 0.0625 0.9375
vt 0.9375 0.9375
vt 0.9375 0.0625
vt 0.0625 0.9375
vt 0.9375 0.9375
vt 0.9375 0.0625
vt 0.0625 0.9375
vt 0.9375 0.9375
vt 0.9375 0.0625
vt 0.0625 0.9375
vt 0.9375 0.9375
vt 0.9375 0.0625
vt 0.0625 0.9375
vt 0.9375 0.9375
vt 0.9375 0.0625
vt 0.0625 0.9375
vt 0.9375 0.9375
vt 0.9375 0.0625
vt 0.0625 0.9375
vt 0.9375 0.9375
vt 0.9375 0.0625
vt 0.0625 0.9375
vt 0.9375 0.9375
vt 0.9375 0.0625
vt 0.0625 0.9375
vt 0.9375 0.9375
vt 0.9375 0.0625
vt 0.0625 0.9375
vt 0.9375 0.9375
vt 0.9375 0.0625
vt 0.0625 0.9375
vt 0.9375 0.9375
vt 0.9375 0.0625
vt 0.0625 0.9375
vt 0.9375 0.9375
vt 0.9375 0.0625
vt 0.0625 0.9375
vt 0.9375 0.9375
vt 0.9375 0.0625
vt 0.0625 0.0625
vt 0.0625 0.9375
vt 0.9375 0.9375
vt 0.9375 0.0625
vt 0.0625 0.0625
vt 0.0625 0.9375
vt 0.9375 0.9375
vt 0.9375 0.0625
vt 0.0625 0.0625
vt 0.0625 0.9375
vt 0.9375 0.9375
vt 0.9375 0.0625
vt 0.0625 0.0625
vt 0.0625 0.9375
vt 0.9375 0.9375
vt 0.9375 0.0625
vt 0.0625 0.0625
vt 0.0625 0.9375
vt 0.9375 0.9375
vt 0.9375 0.0625
vt 0.0625 0.0625
vt 0.0625 0.9375
vt 0.9375 0.9375
vt 0.9375 0.0625
vt 0.0625 0.0625
vt 0.0625 0.9375
vt 0.9375 0.9375
vt 0.9375 0.0625
vt 0.0625 0.0625
vt 0.0625 0.9375
vt 0.9375 0.9375
vt 0.9375 0.0625
vt 0.0625 0.9375
vt 0.9375 0.9375
vt 0.9375 0.0625
vt 0.0625 0.9375
vt 0.9375 0.9375
vt 0.9375 0.0625
vt 0.0625 0.9375
vt 0.9375 0.9375
vt 0.9375 0.0625
vt 0.0625 0.9375
vt 0.9375 0.9375
vt 0.9375 0.0625
vt 0.0625 0.9375
vt 0.9375 0.9375
vt 0.9375 0.0625
vt 0.0625 0.9375
vt 0.9375 0.9375
vt 0.9375 0.0625
vt 0.0625 0.9375
vt 0.9375 0.9375
vt 0.9375 0.0625
vt 0.0625 0.9375
vt 0.9375 0.9375
vt 0.9375 0.0625
vt 0.0625 0.9375
vt 0.9375 0.9375
vt 0.9375 0.0625
vt 0.0625 0.9375
vt 0.9375 0.9375
vt 0.9375 0.0625
vt 0.0625 0.9375
vt 0.9375 0.9375
vt 0.9375 0.0625
vt 0.0625 0.9375
vt 0.9375 0.9375
vt 0.9375 0.0625
vt 0.0625 0.9375
vt 0.9375 0.9375
vt 0.9375 0.0625
vt 0.0625 0.9375
vt 0.9375 0.9375
vt 0.9375 0.0625
vt 0.0625 0.9375
vt 0.9375 0.9375
vt 0.9375 0.0625
vt 0.0625 0.9375
vt 0.9375 0.9375
vt 0.9375 0.0625
vt 0.0625 0.0625
vt 0.0625 0.9375
vt 0.9375 0.9375
vt 0.9375 0.0625
vt 0.0625 0.0625
vt 0.0625 0.9375
vt 0.9375 0.9375
vt 0.9375 0.0625
vt 0.0625 0.0625
vt 0.0625 0.9375
vt 0.9375 0.9375
vt 0.9375 0.0625
vt 0.0625 0.0625
vt 0.0625 0.9375
vt 0.9375 0.9375
vt 0.9375 0.0625
vt 0.0625 0.0625
vt 0.0625 0.9375
vt 0.9375 0.9375
vt 0.9375 0.0625
vt 0.0625 0.0625
vt 0.0625 0.9375
vt 0.9375 0.9375
vt 0.9375 0.0625
vt 0.0625 0.0625
vt 0.0625 0.9375
vt 0.9375 0.9375
vt 0.9375 0.0625
vt 0.0625 0.0625
vt 0.0625 0.9375
vt 0.9375 0.9375
vt 0.9375 0.0625
vt 0.0625 0.9375
vt 0.9375 0.9375
vt 0.9375 0.0625
vt 0.0625 0.9375
vt 0.9375 0.9375
vt 0.9375 0.0625
vt 0.0625 0.9375
vt 0.9375 0.9375
vt 0.9375 0.0625
vt 0.0625 0.9375
vt 0.9375 0.9375
vt 0.9375 0.0625
vt 0.0625 0.9375
vt 0.9375 0.9375
vt 0.9375 0.0625
vt 0.0625 0.9375
vt 0.9375 0.9375
vt 0.9375 0.0625
vt 0.0625 0.9375
vt 0.9375 0.9375
vt 0.9375 0.0625
vt 0.0625 0.9375
vt 0.9375 0.9375
vt 0.9375 0.0625
vt 0.0625 0.9375
vt 0.9375 0.9375
vt 0.9375 0.0625
vt 0.0625 0.9375
vt 0.9375 0.9375
vt 0.9375 0.0625
vt 0.0625 0.9375
vt 0.9375 0.9375
vt 0.9375 0.0625
vt 0.0625 0.9375
vt 0.9375 0.9375
vt 0.9375 0.0625
vt 0.0625 0.9375
vt 0.9375 0.9375
vt 0.9375 0.0625
vt 0.0625 0.9375
vt 0.9375 0.9375
vt 0.9375 0.0625
vt 0.0625 0.9375
vt 0.9375 0.9375
vt 0.9375 0.0625
vt 0.0625 0.9375
vt 0.9375 0.9375
vt 0.9375 0.0625
vt 0.0625 0.0625
vt 0.0625 0.9375
vt 0.9375 0.9375
vt 0.9375 0.0625
vt 0.0625 0.0625
vt 0.0625 0.9375
vt 0.9375 0.9375
vt 0.9375 0.0625
vt 0.0625 0.0625
vt 0.0625 0.9375
vt 0.9375 0.9375
vt 0.9375 0.0625
vt 0.0625 0.0625
vt 0.0625 0.9375
vt 0.9375 0.9375
vt 0.9375 0.0625
vt 0.0625 0.0625
vt 0.0625 0.9375
vt 0.9375 0.9375
vt 0.9375 0.0625
vt 0.0625 0.0625
vt 0.0625 0.9375
vt 0.9375 0.9375
vt 0.9375 0.0625
vt 0.0625 0.0625
vt 0.0625 0.9375
vt 0.9375 0.9375
vt 0.9375 0.0625
vt 0.0625 0.0625
vt 0.0625 0.9375
vt 0.9375 0.9375
vt 0.9375 0.0625
vt 0.0625 0.9375
vt 0.9375 0.9375
vt 0.9375 0.0625
vt 0.0625 0.9375
vt 0.9375 0.9375
vt 0.9375 0.0625
vt 0.0625 0.9375
vt 0.9375 0.9375
vt 0.9375 0.0625
vt 0.0625 0.9375
vt 0.9375 0.9375
vt 0.9375 0.0625
vt 0.0625 0.9375
vt 0.9375 0.9375
vt 0.9375 0.0625
vt 0.0625 0.9375
vt 0.9375 0.9375
vt 0.9375 0.0625
vt 0.0625 0.9375
vt 0.9375 0.9375
vt 0.9375 0.0625
vt 0.0625 0.9375
vt 0.9375 0.9375
vt 0.9375 0.0625
vt 0.0625 0.9375
vt 0.9375 0.9375
vt 0.9375 0.0625
vt 0.0625 0.9375
vt 0.9375 0.9375
vt 0.9375 0.0625
vt 0.0625 0.9375
vt 0.9375 0.9375
vt 0.9375 0.0625
vt 0.0625 0.9375
vt 0.9375 0.9375
vt 0.9375 0.0625
vt 0.0625 0.9375
vt 0.9375 0.9375
vt 0.9375 0.0625
vt 0.0625 0.9375
vt 0.9375 0.9375
vt 0.9375 0.0625
vt 0.0625 0.9375
vt 0.9375 0.9375
vt 0.9375 0.0625
vt 0.0625 0.9375
vt 0.9375 0.9375
vt 0.9375 0.0625
vt 0.0625 0.0625
vt 0.0625 0.9375
vt 0.9375 0.9375
vt 0.9375 0.0625
vt 0.0625 0.0625
vt 0.0625 0.9375
vt 0.9375 0.9375
vt 0.9375 0.0625
vt 0.0625 0.0625
vt 0.0625 0.9375
vt 0.9375 0.9375
vt 0.9375 0.0625
vt 0.0625 0.0625
vt 0.0625 0.9375
vt 0.9375 0.9375
vt 0.9375 0.0625
vt 0.0625 0.0625
vt 0.0625 0.9375
vt 0.9375 0.9375
vt 0.9375 0.0625
vt 0.0625 0.0625
vt 0.0625 0.9375
vt 0.9375 0.9375
vt 0.9375 0.0625
vt 0.0625 0.0625
vt 0.0625 0.9375
vt 0.9375 0.9375
vt 0.9375 0.0625
vt 0.0625 0.0625
vt 0.0625 0.9375
vt 0.9375 0.9375
vt 0.9375 0.0625
vt 0.0625 0.9375
vt 0.9375 0.9375
vt 0.9375 0.0625
vt 0.0625 0.9375
vt 0.9375 0.9375
vt 0.9375 0.0625
vt 0.0625 0.9375
vt 0.9375 0.9375
vt 0.9375 0.0625
vt 0.0625 0.9375
vt 0.9375 0.9375
vt 0.9375 0.0625
vt 0.0625 0.9375
vt 0.9375 0.9375
vt 0.9375 0.0625
vt 0.0625 0.9375
vt 0.9375 0.9375
vt 0.9375 0.0625
vt 0.0625 0.9375
vt 0.9375 0.9375
vt 0.9375 0.0625
vt 0.0625 0.9375
vt 0.9375 0.9375
vt 0.9375 0.0625
vt 0.0625 0.9375
vt 0.9375 0.9375
vt 0.9375 0.0625
vt 0.0625 0.9375
vt 0.9375 0.9375
vt 0.9375 0.0625
vt 0.0625 0.9375
vt 0.9375 0.9375
vt 0.9375 0.0625
vt 0.0625 0.9375
vt 0.9375 0.9375
vt 0.9375 0.0625
vt 0.0625 0.9375
vt 0.9375 0.9375
vt 0.9375 0.0625
vt 0.0625 0.9375
vt 0.9375 0.9375
vt 0.9375 0.0625
vt 0.0625 0.9375
vt 0.9375 0.9375
vt 0.9375 0.0625
vt 0.0625 0.9375
vt 0.9375 0.9375
vt 0.9375 0.0625
vt 0.0625 0.0625
vt 0.0625 0.9375
vt 0.9375 0.9375
vt 0.9375 0.0625
vt 0.0625 0.0625
vt 0.0625 0.9375
vt 0.9375 0.9375
vt 0.9375 0.0625
vt 0.0625 0.0625
vt 0.0625 0.9375
vt 0.9375 0.9375
vt 0.9375 0.0625
vt 0.0625 0.0625
vt 0.0625 0.9375
vt 0.9375 0.9375
vt 0.9375 0.0625
vt 0.0625 0.0625
vt 0.0625 0.9375
vt 0.9375 0.9375
vt 0.9375 0.0625
vt 0.0625 0.0625
vt 0.0625 0.9375
vt 0.9375 0.9375
vt 0.9375 0.0625
vt 0.0625 0.0625
vt 0.0625 0.9375
vt 0.9375 0.9375
vt 0.9375 0.0625
vt 0.0625 0.0625
vt 0.0625 0.9375
vt 0.9375 0.9375
vt 0.9375 0.0625
vt 0.0625 0.0625
vt 0.0625 0.9375
vt 0.9375 0.9375
vt 0.9375 0.0625
vt 0.0625 0.0625
vt 0.0625 0.9375
vt 0.9375 0.9375
vt 0.9375 0.0625
vt 0.0625 0.0625
vt 0.0625 0.9375
vt 0.9375 0.9375
vt 0.9375 0.0625
vt 0.0625 0.0625
vt 0.0625 0.9375
vt 0.9375 0.9375
vt 0.9375 0.0625
vt 0.0625 0.0625
vt 0.0625 0.9375
vt 0.9375 0.9375
vt 0.9375 0.0625
vt 0.0625 0.0625
vt 0.0625 0.9375
vt 0.9375 0.9375
vt 0.9375 0.0625
vt 0.0625 0.0625
vt 0.0625 0.9375
vt 0.9375 0.9375
vt 0.9375 0.0625
vt 0.0625 0.0625
vt 0.0625 0.9375
vt 0.9375 0.9375
vt 0.9375 0.0625
vt 0.0625 0.0625
vt 0.0625 0.9375
vt 0.9375 0.9375
vt 0.9375 0.0625
vt 0.0625 0.0625
vt 0.0625 0.9375
vt 0.9375 0.9375
vt 0.9375 0.0625
vt 0.0625 0.0625
vt 0.0625 0.9375
vt 0.9375 0.9375
vt 0.9375 0.0625
vt 0.0625 0.0625
vt 0.0625 0.9375
vt 0.9375 0.9375
vt 0.9375 0.0625
vt 0.0625 0.0625
vt 0.0625 0.9375
vt 0.9375 0.9375
vt 0.9375 0.0625
vt 0.0625 0.0625
vt 0.0625 0.9375
vt 0.9375 0.9375
vt 0.9375 0.0625
vt 0.0625 0.0625
vt 0.0625 0.9375
vt 0.9375 0.9375
vt 0.9375 0.0625
vt 0.0625 0.0625
vt 0.0625 0.9375
vt 0.9375 0.9375
vt 0.9375 0.0625
vt 0.0625 0.9375
vt 0.9375 0.9375
vt 0.9375 0.0625
vt 0.0625 0.9375
vt 0.9375 0.9375
vt 0.9375 0.0625
vt 0.0625 0.9375
vt 0.9375 0.9375
vt 0.9375 0.0625
vt 0.0625 0.9375
vt 0.9375 0.9375
vt 0.9375 0.0625
vt 0.0625 0.9375
vt 0.9375 0.9375
vt 0.9375 0.0625
vt 0.0625 0.9375
vt 0.9375 0.9375
vt 0.9375 0.0625
vt 0.0625 0.9375
vt 0.9375 0.9375
vt 0.9375 0.0625
vt 0.0625 0.9375
vt 0.9375 0.9375
vt 0.9375 0.0625
vt 0.0625 0.9375
vt 0.9375 0.9375
vt 0.9375 0.0625
vt 0.0625 0.9375
vt 0.9375 0.9375
vt 0.9375 0.0625
vt 0.0625 0.9375
vt 0.9375 0.9375
vt 0.9375 0.0625
vt 0.0625 0.9375
vt 0.9375 0.9375
vt 0.9375 0.0625
vt 0.0625 0.9375
vt 0.9375 0.9375
vt 0.9375 0.0625
vt 0.0625 0.9375
vt 0.9375 0.9375
vt 0.9375 0.0625
vt 0.0625 0.9375
vt 0.9375 0.9375
vt 0.9375 0.0625
vt 0.995070423 0.25
vt 0.995070423 0.251451613
vt 0.00492957746 0.251451613
vt 0.00492957746 0.25
vt 0.00492957746 0.25
vt 0.00492957746 0.251451613
vt -2.22044605e-16 0.251451613
vt 0.00169014085 0.25
vt 0.00169014085 0.25
vt -2.22044605e-16 0.251451613
vt -2.22044605e-16 0.251451613
vt 0.00169014085 0.25
vt 0.00169014085 0.25
vt -2.22044605e-16 0.251451613
vt 0.00492957746 0.251451613
vt 0.00492957746 0.25
vt 0.00492957746 0.25
vt 0.00492957746 0.251451613
vt 0.995070423 0.251451613
vt 0.995070423 0.25
vt 0.995070423 0.25
vt 0.995070423 0.251451613
vt 1 0.251451613
vt 0.998309859 0.25
vt 0.998309859 0.25
vt 1 0.251451613
vt 1 0.251451613
vt 0.998309859 0.25
vt 0.998309859 0.25
vt 1 0.251451613
vt 0.995070423 0.251451613
vt 0.995070423 0.25
vt 0.995070423 0.251451613
vt 0.995070423 0.998548387
vt 0.00492957746 0.998548387
vt 0.00492957746 0.251451613
vt 0.00492957746 0.251451613
vt 0.00492957746 0.998548387
vt -2.22044605e-16 0.998548387
vt -2.22044605e-16 0.251451613
vt -2.22044605e-16 0.251451613
vt -2.22044605e-16 0.998548387
vt -2.22044605e-16 0.998548387
vt -2.22044605e-16 0.251451613
vt -2.22044605e-16 0.251451613
vt -2.22044605e-16 0.998548387
vt 0.00492957746 0.998548387
vt 0.00492957746 0.251451613
vt 0.00492957746 0.251451613
vt 0.00492957746 0.998548387
vt 0.995070423 0.998548387
vt 0.995070423 0.251451613
vt 0.995070423 0.251451613
vt 0.995070423 0.998548387
vt 1 0.998548387
vt 1 0.251451613
vt 1 0.251451613
vt 1 0.998548387
vt 1 0.998548387
vt 1 0.251451613
vt 1 0.251451613
vt 1 0.998548387
vt 0.995070423 0.998548387
vt 0.995070423 0.251451613
vt 0.995070423 0.998548387
vt 0.995070423 1
vt 0.00492957746 1
vt 0.00492957746 0.998548387
vt 0.00492957746 0.998548387
vt 0.00492957746 1
vt 0.00169014085 1
vt -2.22044605e-16 0.998548387
vt -2.22044605e-16 0.998548387
vt 0.00169014085 1
vt 0.00169014085 1
vt -2.22044605e-16 0.998548387
vt -2.22044605e-16 0.998548387
vt 0.00169014085 1
vt 0.00492957746 1
vt 0.00492957746 0.998548387
vt 0.00492957746 0.998548387
vt 0.00492957746 1
vt 0.995070423 1
vt 0.995070423 0.998548387
vt 0.995070423 0.998548387
vt 0.995070423 1
vt 0.998309859 1
vt 1 0.998548387
vt 1 0.998548387
vt 0.998309859 1
vt 0.998309859 1
vt 1 0.998548387
vt 1 0.998548387
vt 0.998309859 1
vt 0.995070423 1
vt 0.995070423 0.998548387
vt 0.5 0.25
vt 0.995070423 0.25
vt 0.00492957746 0.25
vt 0.5 1
vt 0.00492957746 1
vt 0.995070423 1
vt 0.5 0.25
vt 0.00492957746 0.25
vt 0.00169014085 0.25
vt 0.5 1
vt 0.00169014085 1
vt 0.00492957746 1
vt 0.5 0.25
vt 0.00169014085 0.25
vt 0.00169014085 0.25
vt 0.5 1
vt 0.00169014085 1
vt 0.00169014085 1
vt 0.5 0.25
vt 0.00169014085 0.25
vt 0.00492957746 0.25
vt 0.5 1
vt 0.00492957746 1
vt 0.00169014085 1
vt 0.5 0.25
vt 0.00492957746 0.25
vt 0.995070423 0.25
vt 0.5 1
vt 0.995070423 1
vt 0.00492957746 1
vt 0.5 0.25
vt 0.995070423 0.25
vt 0.998309859 0.25
vt 0.5 1
vt 0.998309859 1
vt 0.995070423 1
vt 0.5 0.25
vt 0.998309859 0.25
vt 0.998309859 0.25
vt 0.5 1
vt 0.998309859 1
vt 0.998309859 1
vt 0.5 0.25
vt 0.998309859 0.25
vt 0.995070423 0.25
vt 0.5 1
vt 0.995070423 1
vt 0.998309859 1
vt 0.0625 0.9375
vt 0.9375 0.9375
vt 0.9375 0.0625
vt 0.0625 0.0625
vt 0.0625 0.9375
vt 0.9375 0.9375
vt 0.9375 0.0625
vt 0.0625 0.0625
vt 0.0625 0.9375
vt 0.9375 0.9375
vt 0.9375 0.0625
vt 0.0625 0.0625
vt 0.0625 0.9375
vt 0.9375 0.9375
vt 0.9375 0.0625
vt 0.0625 0.0625
vt 0.0625 0.9375
vt 0.9375 0.9375
vt 0.9375 0.0625
vt 0.0625 0.0625
vt 0.0625 0.9375
vt 0.9375 0.9375
vt 0.9375 0.0625
vt 0.0625 0.0625
vt 0.0625 0.9375
vt 0.9375 0.9375
vt 0.9375 0.0625
vt 0.0625 0.0625
vt 0.0625 0.9375
vt 0.9375 0.9375
vt 0.9375 0.0625
vt 0.0625 0.0625
vt 0.0625 0.9375
vt 0.9375 0.9375
vt 0.9375 0.0625
vt 0.0625 0.0625
vt 0.0625 0.9375
vt 0.9375 0.9375
vt 0.9375 0.0625
vt 0.0625 0.0625
vt 0.0625 0.9375
vt 0.9375 0.9375
vt 0.9375 0.0625
vt 0.0625 0.0625
vt 0.0625 0.9375
vt 0.9375 0.9375
vt 0.9375 0.0625
vt 0.0625 0.0625
vt 0.0625 0.9375
vt 0.9375 0.9375
vt 0.9375 0.0625
vt 0.0625 0.0625
vt 0.0625 0.9375
vt 0.9375 0.9375
vt 0.9375 0.0625
vt 0.0625 0.0625
vt 0.0625 0.9375
vt 0.9375 0.9375
vt 0.9375 0.0625
vt 0.0625 0.0625
vt 0.0625 0.9375
vt 0.9375 0.9375
vt 0.9375 0.0625
vt 0.0625 0.0625
vt 0.0625 0.9375
vt 0.9375 0.9375
vt 0.9375 0.0625
vt 0.0625 0.0625
vt 0.0625 0.9375
vt 0.9375 0.9375
vt 0.9375 0.0625
vt 0.0625 0.0625
vt 0.0625 0.9375
vt 0.9375 0.9375
vt 0.9375 0.0625
vt 0.0625 0.0625
vt 0.0625 0.9375
vt 0.9375 0.9375
vt 0.9375 0.0625
vt 0.0625 0.0625
vt 0.0625 0.9375
vt 0.9375 0.9375
vt 0.9375 0.0625
vt 0.0625 0.0625
vt 0.0625 0.9375
vt 0.9375 0.9375
vt 0.9375 0.0625
vt 0.0625 0.0625
vt 0.0625 0.9375
vt 0.9375 0.9375
vt 0.9375 0.0625
vt 0.0625 0.0625
vt 0.0625 0.9375
vt 0.9375 0.9375
vt 0.9375 0.0625
vt 0.0625 0.0625
vt 0.0625 0.9375
vt 0.9375 0.9375
vt 0.9375 0.0625
vt 0.0625 0.9375
vt 0.9375 0.9375
vt 0.9375 0.0625
vt 0.0625 0.9375
vt 0.9375 0.9375
vt 0.9375 0.0625
vt 0.0625 0.9375
vt 0.9375 0.9375
vt 0.9375 0.0625
vt 0.0625 0.9375
vt 0.9375 0.9375
vt 0.9375 0.0625
vt 0.0625 0.9375
vt 0.9375 0.9375
vt 0.9375 0.0625
vt 0.0625 0.9375
vt 0.9375 0.9375
vt 0.9375 0.0625
vt 0.0625 0.9375
vt 0.9375 0.9375
vt 0.9375 0.0625
vt 0.0625 0.9375
vt 0.9375 0.9375
vt 0.9375 0.0625
vt 0.0625 0.9375
vt 0.9375 0.9375
vt 0.9375 0.0625
vt 0.0625 0.9375
vt 0.9375 0.9375
vt 0.9375 0.0625
vt 0.0625 0.9375
vt 0.9375 0.9375
vt 0.9375 0.0625
vt 0.0625 0.9375
vt 0.9375 0.9375
vt 0.9375 0.0625
vt 0.0625 0.9375
vt 0.9375 0.9375
vt 0.9375 0.0625
vt 0.0625 0.9375
vt 0.9375 0.9375
vt 0.9375 0.0625
vt 0.0625 0.9375
vt 0.9375 0.9375
vt 0.9375 0.0625
vn 0 0 -1
vn 0.707106781 0 -0.707106781
vn 1 0 0
vn 0.707106781 0 0.707106781
vn 0 0 1
vn -0.707106781 0 0.707106781
vn -1 0 0
vn -0.707106781 0 -0.707106781
vn 0 -1 0
vn 0 1 0
vn 0 -1 0
vn 0 1 0
vn 0 -1 0
vn 0 1 0
vn 0 -1 0
vn 0 1 0
vn 0 -1 0
vn 0 1 0
vn 0 -1 0
vn 0 1 0
vn 0 -1 0
vn 0 1 0
vn 0 -1 0
vn 0 1 0
vn 0 0 -1
vn 0.707106781 0 -0.707106781
vn 1 0 0
vn 0.707106781 0 0.707106781
vn 0 0 1
vn -0.707106781 0 0.707106781
vn -1 0 0
vn -0.707106781 0 -0.707106781
vn 0 -1 0
vn 0 1 0
vn 0 -1 0
vn 0 1 0
vn 0 -1 0
vn 0 1 0
vn 0 -1 0
vn 0 1 0
vn 0 -1 0
vn 0 1 0
vn 0 -1 0
vn 0 1 0
vn 0 -1 0
vn 0 1 0
vn 0 -1 0
vn 0 1 0
vn 0 0 -1
vn 0.707106781 0 -0.707106781
vn 1 0 0
vn 0.707106781 0 0.707106781
vn 0 0 1
vn -0.707106781 0 0.707106781
vn -1 0 0
vn -0.707106781 0 -0.707106781
vn 0 -1 0
vn 0 1 0
vn 0 -1 0
vn 0 1 0
vn 0 -1 0
vn 0 1 0
vn 0 -1 0
vn 0 1 0
vn 0 -1 0
vn 0 1 0
vn 0 -1 0
vn 0 1 0
vn 0 -1 0
vn 0 1 0
vn 0 -1 0
vn 0 1 0
vn 0 0 -1
vn 0.707106781 0 -0.707106781
vn 1 0 0
vn 0.707106781 0 0.707106781
vn 0 0 1
vn -0.707106781 0 0.707106781
vn -1 0 0
vn -0.707106781 0 -0.707106781
vn 0 -1 0
vn 0 1 0
vn 0 -1 0
vn 0 1 0
vn 0 -1 0
vn 0 1 0
vn 0 -1 0
vn 0 1 0
vn 0 -1 0
vn 0 1 0
vn 0 -1 0
vn 0 1 0
vn 0 -1 0
vn 0 1 0
vn 0 -1 0
vn 0 1 0
vn 0 0 -1
vn 0.707106781 0 -0.707106781
vn 1 0 0
vn 0.707106781 0 0.707106781
vn 0 0 1
vn -0.707106781 0 0.707106781
vn -1 0 0
vn -0.707106781 0 -0.707106781
vn 0 -1 0
vn 0 1 0
vn 0 -1 0
vn 0 1 0
vn 0 -1 0
vn 0 1 0
vn 0 -1 0
vn 0 1 0
vn 0 -1 0
vn 0 1 0
vn 0 -1 0
vn 0 1 0
vn 0 -1 0
vn 0 1 0
vn 0 -1 0
vn 0 1 0
vn 0 0 -1
vn 0.707106781 0 -0.707106781
vn 1 0 0
vn 0.707106781 0 0.707106781
vn 0 0 1
vn -0.707106781 0 0.707106781
vn -1 0 0
vn -0.707106781 0 -0.707106781
vn 0 -1 0
vn 0 1 0
vn 0 -1 0
vn 0 1 0
vn 0 -1 0
vn 0 1 0
vn 0 -1 0
vn 0 1 0
vn 0 -1 0
vn 0 1 0
vn 0 -1 0
vn 0 1 0
vn 0 -1 0
vn 0 1 0
vn 0 -1 0
vn 0 1 0
vn 0 -0.707106781 -0.707106781
vn 0.577350269 -0.577350269 -0.577350269
vn 0.707106781 -0.707106781 0
vn 0.577350269 -0.577350269 0.577350269
vn 0 -0.707106781 0.707106781
vn -0.577350269 -0.577350269 0.577350269
vn -0.707106781 -0.707106781 0
vn -0.577350269 -0.577350269 -0.577350269
vn 0 0 -1
vn 0.707106781 0 -0.707106781
vn 1 0 0
vn 0.707106781 0 0.707106781
vn 0 0 1
vn -0.707106781 0 0.707106781
vn -1 0 0
vn -0.707106781 0 -0.707106781
vn 0 0.707106781 -0.707106781
vn 0.577350269 0.577350269 -0.577350269
vn 0.707106781 0.707106781 0
vn 0.577350269 0.577350269 0.577350269
vn 0 0.707106781 0.707106781
vn -0.577350269 0.577350269 0.577350269
vn -0.707106781 0.707106781 0
vn -0.577350269 0.577350269 -0.577350269
vn 0 -1 0
vn 0 1 -1.73303106e-14
vn 0 -1 0
vn 9.14469415e-16 1 -9.14469415e-16
vn 0 -1 0
vn 9.43615851e-16 1 0
vn 0 -1 0
vn 9.14469415e-16 1 9.14469415e-16
vn 0 -1 0
vn 0 1 1.73303106e-14
vn 0 -1 0
vn -9.14469415e-16 1 9.14469415e-16
vn 0 -1 0
vn -9.43615851e-16 1 0
vn 0 -1 0
vn -9.14469415e-16 1 -9.14469415e-16
vn 0 -0.707106781 -0.707106781
vn 0.577350269 -0.577350269 -0.577350269
vn 0.707106781 -0.707106781 0
vn 0.577350269 -0.577350269 0.577350269
vn 0 -0.707106781 0.707106781
vn -0.577350269 -0.577350269 0.577350269
vn -0.707106781 -0.707106781 0
vn -0.577350269 -0.577350269 -0.577350269
vn 0 0 -1
vn 0.707106781 0 -0.707106781
vn 1 0 0
vn 0.707106781 0 0.707106781
vn 0 0 1
vn -0.707106781 0 0.707106781
vn -1 0 0
vn -0.707106781 0 -0.707106781
vn 0 0.707106781 -0.707106781
vn 0.577350269 0.577350269 -0.577350269
vn 0.707106781 0.707106781 0
vn 0.577350269 0.577350269 0.577350269
vn 0 0.707106781 0.707106781
vn -0.577350269 0.577350269 0.577350269
vn -0.707106781 0.707106781 0
vn -0.577350269 0.577350269 -0.577350269
vn 0 -1 9.34924652e-14
vn 0 1 0
vn -9.99919414e-16 -1 9.99919414e-16
vn 0 1 0
vn -1.00415876e-15 -1 0
vn 0 1 0
vn -9.99919414e-16 -1 -9.99919414e-16
vn 0 1 0
vn 0 -1 -9.34924652e-14
vn 0 1 0
vn 9.99919414e-16 -1 -9.99919414e-16
vn 0 1 0
vn 1.00415876e-15 -1 0
vn 0 1 0
vn 9.99919414e-16 -1 9.99919414e-16
vn 0 1 0
vn 0 -0.707106781 -0.707106781
vn 0.577350269 -0.577350269 -0.577350269
vn 0.707106781 -0.707106781 0
vn 0.577350269 -0.577350269 0.577350269
vn 0 -0.707106781 0.707106781
vn -0.577350269 -0.577350269 0.577350269
vn -0.707106781 -0.707106781 0
vn -0.577350269 -0.577350269 -0.577350269
vn 0 0 -1
vn 0.707106781 0 -0.707106781
vn 1 0 0
vn 0.707106781 0 0.707106781
vn 0 0 1
vn -0.707106781 0 0.707106781
vn -1 0 0
vn -0.707106781 0 -0.707106781
vn 0 0.707106781 -0.707106781
vn 0.577350269 0.577350269 -0.577350269
vn 0.707106781 0.707106781 0
vn 0.577350269 0.577350269 0.577350269
vn 0 0.707106781 0.707106781
vn -0.577350269 0.577350269 0.577350269
vn -0.707106781 0.707106781 0
vn -0.577350269 0.577350269 -0.577350269
vn 0 -1 0
vn 0 1 0
vn 0 -1 0
vn 0 1 0
vn 0 -1 0
vn 0 1 0
vn 0 -1 0
vn 0 1 0
vn 0 -1 0
vn 0 1 0
vn 0 -1 0
vn 0 1 0
vn 0 -1 0
vn 0 1 0
vn 0 -1 0
vn 0 1 0
o middle_rear_spine
usemtl transporter_titanium
f 9/1/1 17/2/1 18/3/1 10/4/1
f 10/5/2 18/6/2 19/7/2 11/8/2
f 11/9/3 19/10/3 20/11/3 12/12/3
f 12/13/4 20/14/4 21/15/4 13/16/4
f 13/17/5 21/18/5 22/19/5 14/20/5
f 14/21/6 22/22/6 23/23/6 15/24/6
f 15/25/7 23/26/7 24/27/7 16/28/7
f 16/29/8 24/30/8 17/31/8 9/32/8
f 33/33/9 1/34/9 2/35/9
f 34/36/10 26/37/10 25/38/10
f 33/39/11 2/40/11 3/41/11
f 34/42/12 27/43/12 26/44/12
f 33/45/13 3/46/13 4/47/13
f 34/48/14 28/49/14 27/50/14
f 33/51/15 4/52/15 5/53/15
f 34/54/16 29/55/16 28/56/16
f 33/57/17 5/58/17 6/59/17
f 34/60/18 30/61/18 29/62/18
f 33/63/19 6/64/19 7/65/19
f 34/66/20 31/67/20 30/68/20
f 33/69/21 7/70/21 8/71/21
f 34/72/22 32/73/22 31/74/22
f 33/75/23 8/76/23 1/77/23
f 34/78/24 25/79/24 32/80/24
o middle_recessed_backpanel
usemtl transporter_graphite
f 43/81/25 51/82/25 52/83/25 44/84/25
f 44/85/26 52/86/26 53/87/26 45/88/26
f 45/89/27 53/90/27 54/91/27 46/92/27
f 46/93/28 54/94/28 55/95/28 47/96/28
f 47/97/29 55/98/29 56/99/29 48/100/29
f 48/101/30 56/102/30 57/103/30 49/104/30
f 49/105/31 57/106/31 58/107/31 50/108/31
f 50/109/32 58/110/32 51/111/32 43/112/32
f 67/113/33 35/114/33 36/115/33
f 68/116/34 60/117/34 59/118/34
f 67/119/35 36/120/35 37/121/35
f 68/122/36 61/123/36 60/124/36
f 67/125/37 37/126/37 38/127/37
f 68/128/38 62/129/38 61/130/38
f 67/131/39 38/132/39 39/133/39
f 68/134/40 63/135/40 62/136/40
f 67/137/41 39/138/41 40/139/41
f 68/140/42 64/141/42 63/142/42
f 67/143/43 40/144/43 41/145/43
f 68/146/44 65/147/44 64/148/44
f 67/149/45 41/150/45 42/151/45
f 68/152/46 66/153/46 65/154/46
f 67/155/47 42/156/47 35/157/47
f 68/158/48 59/159/48 66/160/48
o middle_left_light_socket
usemtl transporter_rubber
f 77/161/49 85/162/49 86/163/49 78/164/49
f 78/165/50 86/166/50 87/167/50 79/168/50
f 79/169/51 87/170/51 88/171/51 80/172/51
f 80/173/52 88/174/52 89/175/52 81/176/52
f 81/177/53 89/178/53 90/179/53 82/180/53
f 82/181/54 90/182/54 91/183/54 83/184/54
f 83/185/55 91/186/55 92/187/55 84/188/55
f 84/189/56 92/190/56 85/191/56 77/192/56
f 101/193/57 69/194/57 70/195/57
f 102/196/58 94/197/58 93/198/58
f 101/199/59 70/200/59 71/201/59
f 102/202/60 95/203/60 94/204/60
f 101/205/61 71/206/61 72/207/61
f 102/208/62 96/209/62 95/210/62
f 101/211/63 72/212/63 73/213/63
f 102/214/64 97/215/64 96/216/64
f 101/217/65 73/218/65 74/219/65
f 102/220/66 98/221/66 97/222/66
f 101/223/67 74/224/67 75/225/67
f 102/226/68 99/227/68 98/228/68
f 101/229/69 75/230/69 76/231/69
f 102/232/70 100/233/70 99/234/70
f 101/235/71 76/236/71 69/237/71
f 102/238/72 93/239/72 100/240/72
o middle_left_guide_light
usemtl transporter_cyan
f 111/241/73 119/242/73 120/243/73 112/244/73
f 112/245/74 120/246/74 121/247/74 113/248/74
f 113/249/75 121/250/75 122/251/75 114/252/75
f 114/253/76 122/254/76 123/255/76 115/256/76
f 115/257/77 123/258/77 124/259/77 116/260/77
f 116/261/78 124/262/78 125/263/78 117/264/78
f 117/265/79 125/266/79 126/267/79 118/268/79
f 118/269/80 126/270/80 119/271/80 111/272/80
f 135/273/81 103/274/81 104/275/81
f 136/276/82 128/277/82 127/278/82
f 135/279/83 104/280/83 105/281/83
f 136/282/84 129/283/84 128/284/84
f 135/285/85 105/286/85 106/287/85
f 136/288/86 130/289/86 129/290/86
f 135/291/87 106/292/87 107/293/87
f 136/294/88 131/295/88 130/296/88
f 135/297/89 107/298/89 108/299/89
f 136/300/90 132/301/90 131/302/90
f 135/303/91 108/304/91 109/305/91
f 136/306/92 133/307/92 132/308/92
f 135/309/93 109/310/93 110/311/93
f 136/312/94 134/313/94 133/314/94
f 135/315/95 110/316/95 103/317/95
f 136/318/96 127/319/96 134/320/96
o middle_right_light_socket
usemtl transporter_rubber
f 145/321/97 153/322/97 154/323/97 146/324/97
f 146/325/98 154/326/98 155/327/98 147/328/98
f 147/329/99 155/330/99 156/331/99 148/332/99
f 148/333/100 156/334/100 157/335/100 149/336/100
f 149/337/101 157/338/101 158/339/101 150/340/101
f 150/341/102 158/342/102 159/343/102 151/344/102
f 151/345/103 159/346/103 160/347/103 152/348/103
f 152/349/104 160/350/104 153/351/104 145/352/104
f 169/353/105 137/354/105 138/355/105
f 170/356/106 162/357/106 161/358/106
f 169/359/107 138/360/107 139/361/107
f 170/362/108 163/363/108 162/364/108
f 169/365/109 139/366/109 140/367/109
f 170/368/110 164/369/110 163/370/110
f 169/371/111 140/372/111 141/373/111
f 170/374/112 165/375/112 164/376/112
f 169/377/113 141/378/113 142/379/113
f 170/380/114 166/381/114 165/382/114
f 169/383/115 142/384/115 143/385/115
f 170/386/116 167/387/116 166/388/116
f 169/389/117 143/390/117 144/391/117
f 170/392/118 168/393/118 167/394/118
f 169/395/119 144/396/119 137/397/119
f 170/398/120 161/399/120 168/400/120
o middle_right_guide_light
usemtl transporter_cyan
f 179/401/121 187/402/121 188/403/121 180/404/121
f 180/405/122 188/406/122 189/407/122 181/408/122
f 181/409/123 189/410/123 190/411/123 182/412/123
f 182/413/124 190/414/124 191/415/124 183/416/124
f 183/417/125 191/418/125 192/419/125 184/420/125
f 184/421/126 192/422/126 193/423/126 185/424/126
f 185/425/127 193/426/127 194/427/127 186/428/127
f 186/429/128 194/430/128 187/431/128 179/432/128
f 203/433/129 171/434/129 172/435/129
f 204/436/130 196/437/130 195/438/130
f 203/439/131 172/440/131 173/441/131
f 204/442/132 197/443/132 196/444/132
f 203/445/133 173/446/133 174/447/133
f 204/448/134 198/449/134 197/450/134
f 203/451/135 174/452/135 175/453/135
f 204/454/136 199/455/136 198/456/136
f 203/457/137 175/458/137 176/459/137
f 204/460/138 200/461/138 199/462/138
f 203/463/139 176/464/139 177/465/139
f 204/466/140 201/467/140 200/468/140
f 203/469/141 177/470/141 178/471/141
f 204/472/142 202/473/142 201/474/142
f 203/475/143 178/476/143 171/477/143
f 204/478/144 195/479/144 202/480/144
o middle_instrument_bezel
usemtl transporter_rubber
f 205/481/145 213/482/145 214/483/145 206/484/145
f 206/485/146 214/486/146 215/487/146 207/488/146
f 207/489/147 215/490/147 216/491/147 208/492/147
f 208/493/148 216/494/148 217/495/148 209/496/148
f 209/497/149 217/498/149 218/499/149 210/500/149
f 210/501/150 218/502/150 219/503/150 211/504/150
f 211/505/151 219/506/151 220/507/151 212/508/151
f 212/509/152 220/510/152 213/511/152 205/512/152
f 213/513/153 221/514/153 222/515/153 214/516/153
f 214/517/154 222/518/154 223/519/154 215/520/154
f 215/521/155 223/522/155 224/523/155 216/524/155
f 216/525/156 224/526/156 225/527/156 217/528/156
f 217/529/157 225/530/157 226/531/157 218/532/157
f 218/533/158 226/534/158 227/535/158 219/536/158
f 219/537/159 227/538/159 228/539/159 220/540/159
f 220/541/160 228/542/160 221/543/160 213/544/160
f 221/545/161 229/546/161 230/547/161 222/548/161
f 222/549/162 230/550/162 231/551/162 223/552/162
f 223/553/163 231/554/163 232/555/163 224/556/163
f 224/557/164 232/558/164 233/559/164 225/560/164
f 225/561/165 233/562/165 234/563/165 226/564/165
f 226/565/166 234/566/166 235/567/166 227/568/166
f 227/569/167 235/570/167 236/571/167 228/572/167
f 228/573/168 236/574/168 229/575/168 221/576/168
f 237/577/169 205/578/169 206/579/169
f 238/580/170 230/581/170 229/582/170
f 237/583/171 206/584/171 207/585/171
f 238/586/172 231/587/172 230/588/172
f 237/589/173 207/590/173 208/591/173
f 238/592/174 232/593/174 231/594/174
f 237/595/175 208/596/175 209/597/175
f 238/598/176 233/599/176 232/600/176
f 237/601/177 209/602/177 210/603/177
f 238/604/178 234/605/178 233/606/178
f 237/607/179 210/608/179 211/609/179
f 238/610/180 235/611/180 234/612/180
f 237/613/181 211/614/181 212/615/181
f 238/616/182 236/617/182 235/618/182
f 237/619/183 212/620/183 205/621/183
f 238/622/184 229/623/184 236/624/184
o middle_inset_instrument
usemtl transporter_instruments
f 240/625/185 248/626/185 249/627/185 241/628/185
f 241/629/186 249/630/186 250/631/186 242/632/186
f 242/633/187 250/634/187 251/635/187 243/636/187
f 243/637/188 251/638/188 252/639/188 244/640/188
f 244/641/189 252/642/189 253/643/189 245/644/189
f 245/645/190 253/646/190 254/647/190 246/648/190
f 246/649/191 254/650/191 255/651/191 247/652/191
f 247/653/192 255/654/192 248/655/192 240/656/192
f 248/657/193 256/658/193 239/659/193 249/660/193
f 249/661/194 239/662/194 257/663/194 250/664/194
f 250/665/195 257/666/195 258/667/195 251/668/195
f 251/669/196 258/670/196 259/671/196 252/672/196
f 252/673/197 259/674/197 260/675/197 253/676/197
f 253/677/198 260/678/198 261/679/198 254/680/198
f 254/681/199 261/682/199 262/683/199 255/684/199
f 255/685/200 262/686/200 256/687/200 248/688/200
f 256/689/201 263/690/201 264/691/201 239/692/201
f 239/693/202 264/694/202 265/695/202 257/696/202
f 257/697/203 265/698/203 266/699/203 258/700/203
f 258/701/204 266/702/204 267/703/204 259/704/204
f 259/705/205 267/706/205 268/707/205 260/708/205
f 260/709/206 268/710/206 269/711/206 261/712/206
f 261/713/207 269/714/207 270/715/207 262/716/207
f 262/717/208 270/718/208 263/719/208 256/720/208
f 271/721/209 240/722/209 241/723/209
f 272/724/210 264/725/210 263/726/210
f 271/727/211 241/728/211 242/729/211
f 272/730/212 265/731/212 264/732/212
f 271/733/213 242/734/213 243/735/213
f 272/736/214 266/737/214 265/738/214
f 271/739/215 243/740/215 244/741/215
f 272/742/216 267/743/216 266/744/216
f 271/745/217 244/746/217 245/747/217
f 272/748/218 268/749/218 267/750/218
f 271/751/219 245/752/219 246/753/219
f 272/754/220 269/755/220 268/756/220
f 271/757/221 246/758/221 247/759/221
f 272/760/222 270/761/222 269/762/222
f 271/763/223 247/764/223 240/765/223
f 272/766/224 263/767/224 270/768/224
o middle_lower_access_panel
usemtl transporter_warm
f 273/769/225 281/770/225 282/771/225 274/772/225
f 274/773/226 282/774/226 283/775/226 275/776/226
f 275/777/227 283/778/227 284/779/227 276/780/227
f 276/781/228 284/782/228 285/783/228 277/784/228
f 277/785/229 285/786/229 286/787/229 278/788/229
f 278/789/230 286/790/230 287/791/230 279/792/230
f 279/793/231 287/794/231 288/795/231 280/796/231
f 280/797/232 288/798/232 281/799/232 273/800/232
f 281/801/233 289/802/233 290/803/233 282/804/233
f 282/805/234 290/806/234 291/807/234 283/808/234
f 283/809/235 291/810/235 292/811/235 284/812/235
f 284/813/236 292/814/236 293/815/236 285/816/236
f 285/817/237 293/818/237 294/819/237 286/820/237
f 286/821/238 294/822/238 295/823/238 287/824/238
f 287/825/239 295/826/239 296/827/239 288/828/239
f 288/829/240 296/830/240 289/831/240 281/832/240
f 289/833/241 297/834/241 298/835/241 290/836/241
f 290/837/242 298/838/242 299/839/242 291/840/242
f 291/841/243 299/842/243 300/843/243 292/844/243
f 292/845/244 300/846/244 301/847/244 293/848/244
f 293/849/245 301/850/245 302/851/245 294/852/245
f 294/853/246 302/854/246 303/855/246 295/856/246
f 295/857/247 303/858/247 304/859/247 296/860/247
f 296/861/248 304/862/248 297/863/248 289/864/248
f 305/865/249 273/866/249 274/867/249
f 306/868/250 298/869/250 297/870/250
f 305/871/251 274/872/251 275/873/251
f 306/874/252 299/875/252 298/876/252
f 305/877/253 275/878/253 276/879/253
f 306/880/254 300/881/254 299/882/254
f 305/883/255 276/884/255 277/885/255
f 306/886/256 301/887/256 300/888/256
f 305/889/257 277/890/257 278/891/257
f 306/892/258 302/893/258 301/894/258
f 305/895/259 278/896/259 279/897/259
f 306/898/260 303/899/260 302/900/260
f 305/901/261 279/902/261 280/903/261
f 306/904/262 304/905/262 303/906/262
f 305/907/263 280/908/263 273/909/263
f 306/910/264 297/911/264 304/912/264
