# Blockbench MCP export; packed by tools/export_voxel_printer.py
mtllib voxel_printer.mtl
v -0.0475 0.026875 0
v -0.0475 0.023274375 0.0134375
v -0.0475 0.0134375 0.023274375
v -0.0475 0 0.026875
v -0.0475 -0.0134375 0.023274375
v -0.0475 -0.023274375 0.0134375
v -0.0475 -0.026875 0
v -0.0475 -0.023274375 -0.0134375
v -0.0475 -0.0134375 -0.023274375
v -0.0475 0 -0.026875
v -0.0475 0.0134375 -0.023274375
v -0.0475 0.023274375 -0.0134375
v 0.0475 0.026875 0
v 0.0475 0.023274375 0.0134375
v 0.0475 0.0134375 0.023274375
v 0.0475 0 0.026875
v 0.0475 -0.0134375 0.023274375
v 0.0475 -0.023274375 0.0134375
v 0.0475 -0.026875 0
v 0.0475 -0.023274375 -0.0134375
v 0.0475 -0.0134375 -0.023274375
v 0.0475 0 -0.026875
v 0.0475 0.0134375 -0.023274375
v 0.0475 0.023274375 -0.0134375
v -0.0528125 0.016875 0
v -0.0528125 0.014614375 0.0084375
v -0.0528125 0.0084375 0.014614375
v -0.0528125 0 0.016875
v -0.0528125 -0.0084375 0.014614375
v -0.0528125 -0.014614375 0.0084375
v -0.0528125 -0.016875 0
v -0.0528125 -0.014614375 -0.0084375
v -0.0528125 -0.0084375 -0.014614375
v -0.0528125 0 -0.016875
v -0.0528125 0.0084375 -0.014614375
v -0.0528125 0.014614375 -0.0084375
v -0.0471875 0.016875 0
v -0.0471875 0.014614375 0.0084375
v -0.0471875 0.0084375 0.014614375
v -0.0471875 0 0.016875
v -0.0471875 -0.0084375 0.014614375
v -0.0471875 -0.014614375 0.0084375
v -0.0471875 -0.016875 0
v -0.0471875 -0.014614375 -0.0084375
v -0.0471875 -0.0084375 -0.014614375
v -0.0471875 0 -0.016875
v -0.0471875 0.0084375 -0.014614375
v -0.0471875 0.014614375 -0.0084375
v 0.0471875 0.016875 0
v 0.0471875 0.014614375 0.0084375
v 0.0471875 0.0084375 0.014614375
v 0.0471875 0 0.016875
v 0.0471875 -0.0084375 0.014614375
v 0.0471875 -0.014614375 0.0084375
v 0.0471875 -0.016875 0
v 0.0471875 -0.014614375 -0.0084375
v 0.0471875 -0.0084375 -0.014614375
v 0.0471875 0 -0.016875
v 0.0471875 0.0084375 -0.014614375
v 0.0471875 0.014614375 -0.0084375
v 0.0528125 0.016875 0
v 0.0528125 0.014614375 0.0084375
v 0.0528125 0.0084375 0.014614375
v 0.0528125 0 0.016875
v 0.0528125 -0.0084375 0.014614375
v 0.0528125 -0.014614375 0.0084375
v 0.0528125 -0.016875 0
v 0.0528125 -0.014614375 -0.0084375
v 0.0528125 -0.0084375 -0.014614375
v 0.0528125 0 -0.016875
v 0.0528125 0.0084375 -0.014614375
v 0.0528125 0.014614375 -0.0084375
v -0.019375 -0.06875 -0.035625
v 0.019375 -0.06875 -0.035625
v 0.034375 -0.06875 -0.020625
v 0.034375 -0.06875 0.020625
v 0.019375 -0.06875 0.035625
v -0.019375 -0.06875 0.035625
v -0.034375 -0.06875 0.020625
v -0.034375 -0.06875 -0.020625
v -0.019375 -0.00125 -0.035625
v 0.019375 -0.00125 -0.035625
v 0.034375 -0.00125 -0.020625
v 0.034375 -0.00125 0.020625
v 0.019375 -0.00125 0.035625
v -0.019375 -0.00125 0.035625
v -0.034375 -0.00125 0.020625
v -0.034375 -0.00125 -0.020625
v -0.016875 -0.088125 -0.028125
v 0.016875 -0.088125 -0.028125
v 0.0275 -0.088125 -0.0175
v 0.0275 -0.088125 0.0175
v 0.016875 -0.088125 0.028125
v -0.016875 -0.088125 0.028125
v -0.0275 -0.088125 0.0175
v -0.0275 -0.088125 -0.0175
v -0.016875 -0.065 -0.028125
v 0.016875 -0.065 -0.028125
v 0.0275 -0.065 -0.0175
v 0.0275 -0.065 0.0175
v 0.016875 -0.065 0.028125
v -0.016875 -0.065 0.028125
v -0.0275 -0.065 0.0175
v -0.0275 -0.065 -0.0175
v 0.026875 -0.12 0
v 0.023274375 -0.12 0.0134375
v 0.0134375 -0.12 0.023274375
v 0 -0.12 0.026875
v -0.0134375 -0.12 0.023274375
v -0.023274375 -0.12 0.0134375
v -0.026875 -0.12 0
v -0.023274375 -0.12 -0.0134375
v -0.0134375 -0.12 -0.023274375
v 0 -0.12 -0.026875
v 0.0134375 -0.12 -0.023274375
v 0.023274375 -0.12 -0.0134375
v 0.026875 -0.0875 0
v 0.023274375 -0.0875 0.0134375
v 0.0134375 -0.0875 0.023274375
v 0 -0.0875 0.026875
v -0.0134375 -0.0875 0.023274375
v -0.023274375 -0.0875 0.0134375
v -0.026875 -0.0875 0
v -0.023274375 -0.0875 -0.0134375
v -0.0134375 -0.0875 -0.023274375
v 0 -0.0875 -0.026875
v 0.0134375 -0.0875 -0.023274375
v 0.023274375 -0.0875 -0.0134375
v 0.018125 -0.12 0
v 0.015696875 -0.12 0.0090625
v 0.0090625 -0.12 0.015696875
v 0 -0.12 0.018125
v -0.0090625 -0.12 0.015696875
v -0.015696875 -0.12 0.0090625
v -0.018125 -0.12 0
v -0.015696875 -0.12 -0.0090625
v -0.0090625 -0.12 -0.015696875
v 0 -0.12 -0.018125
v 0.0090625 -0.12 -0.015696875
v 0.015696875 -0.12 -0.0090625
v 0.018125 -0.0875 0
v 0.015696875 -0.0875 0.0090625
v 0.0090625 -0.0875 0.015696875
v 0 -0.0875 0.018125
v -0.0090625 -0.0875 0.015696875
v -0.015696875 -0.0875 0.0090625
v -0.018125 -0.0875 0
v -0.015696875 -0.0875 -0.0090625
v -0.0090625 -0.0875 -0.015696875
v 0 -0.0875 -0.018125
v 0.0090625 -0.0875 -0.015696875
v 0.015696875 -0.0875 -0.0090625
v 0.0175 -0.104375 0
v 0.015155625 -0.104375 0.00875
v 0.00875 -0.104375 0.015155625
v 0 -0.104375 0.0175
v -0.00875 -0.104375 0.015155625
v -0.015155625 -0.104375 0.00875
v -0.0175 -0.104375 0
v -0.015155625 -0.104375 -0.00875
v -0.00875 -0.104375 -0.015155625
v 0 -0.104375 -0.0175
v 0.00875 -0.104375 -0.015155625
v 0.015155625 -0.104375 -0.00875
v 0.0175 -0.100625 0
v 0.015155625 -0.100625 0.00875
v 0.00875 -0.100625 0.015155625
v 0 -0.100625 0.0175
v -0.00875 -0.100625 0.015155625
v -0.015155625 -0.100625 0.00875
v -0.0175 -0.100625 0
v -0.015155625 -0.100625 -0.00875
v -0.00875 -0.100625 -0.015155625
v 0 -0.100625 -0.0175
v 0.00875 -0.100625 -0.015155625
v 0.015155625 -0.100625 -0.00875
vt 0.78125 0.15625
vt 0.78125 0.15625
vt 0.78125 0.15625
vt 0.78125 0.15625
vt 0.78125 0.15625
vt 0.78125 0.15625
vt 0.78125 0.15625
vt 0.78125 0.15625
vt 0.78125 0.15625
vt 0.78125 0.15625
vt 0.78125 0.15625
vt 0.78125 0.15625
vt 0.78125 0.15625
vt 0.78125 0.15625
vt 0.78125 0.15625
vt 0.78125 0.15625
vt 0.78125 0.15625
vt 0.78125 0.15625
vt 0.78125 0.15625
vt 0.78125 0.15625
vt 0.78125 0.15625
vt 0.78125 0.15625
vt 0.78125 0.15625
vt 0.78125 0.15625
vt 0.78125 0.15625
vt 0.78125 0.15625
vt 0.78125 0.15625
vt 0.78125 0.15625
vt 0.78125 0.15625
vt 0.78125 0.15625
vt 0.78125 0.15625
vt 0.78125 0.15625
vt 0.78125 0.15625
vt 0.78125 0.15625
vt 0.78125 0.15625
vt 0.78125 0.15625
vt 0.78125 0.15625
vt 0.78125 0.15625
vt 0.78125 0.15625
vt 0.78125 0.15625
vt 0.78125 0.15625
vt 0.78125 0.15625
vt 0.78125 0.15625
vt 0.78125 0.15625
vt 0.78125 0.15625
vt 0.78125 0.15625
vt 0.78125 0.15625
vt 0.78125 0.15625
vt 0.78125 0.15625
vt 0.78125 0.15625
vt 0.78125 0.15625
vt 0.78125 0.15625
vt 0.78125 0.15625
vt 0.78125 0.15625
vt 0.78125 0.15625
vt 0.78125 0.15625
vt 0.78125 0.15625
vt 0.78125 0.15625
vt 0.78125 0.15625
vt 0.78125 0.15625
vt 0.78125 0.15625
vt 0.78125 0.15625
vt 0.78125 0.15625
vt 0.78125 0.15625
vt 0.78125 0.15625
vt 0.78125 0.15625
vt 0.78125 0.15625
vt 0.78125 0.15625
vt 0.78125 0.15625
vt 0.78125 0.15625
vt 0.78125 0.15625
vt 0.78125 0.15625
vt 0.78125 0.15625
vt 0.78125 0.15625
vt 0.78125 0.15625
vt 0.78125 0.15625
vt 0.78125 0.15625
vt 0.78125 0.15625
vt 0.78125 0.15625
vt 0.78125 0.15625
vt 0.78125 0.15625
vt 0.78125 0.15625
vt 0.78125 0.15625
vt 0.78125 0.15625
vt 0.78125 0.15625
vt 0.78125 0.15625
vt 0.78125 0.15625
vt 0.78125 0.15625
vt 0.78125 0.15625
vt 0.78125 0.15625
vt 0.78125 0.15625
vt 0.78125 0.15625
vt 0.78125 0.15625
vt 0.78125 0.15625
vt 0.78125 0.15625
vt 0.78125 0.15625
vt 0.78125 0.15625
vt 0.78125 0.15625
vt 0.78125 0.15625
vt 0.78125 0.15625
vt 0.78125 0.15625
vt 0.78125 0.15625
vt 0.78125 0.15625
vt 0.78125 0.15625
vt 0.78125 0.15625
vt 0.78125 0.15625
vt 0.78125 0.15625
vt 0.78125 0.15625
vt 0.65625 0.21875
vt 0.65625 0.21875
vt 0.65625 0.21875
vt 0.65625 0.21875
vt 0.65625 0.21875
vt 0.65625 0.21875
vt 0.65625 0.21875
vt 0.65625 0.21875
vt 0.65625 0.21875
vt 0.65625 0.21875
vt 0.65625 0.21875
vt 0.65625 0.21875
vt 0.65625 0.21875
vt 0.65625 0.21875
vt 0.65625 0.21875
vt 0.65625 0.21875
vt 0.65625 0.21875
vt 0.65625 0.21875
vt 0.65625 0.21875
vt 0.65625 0.21875
vt 0.65625 0.21875
vt 0.65625 0.21875
vt 0.65625 0.21875
vt 0.65625 0.21875
vt 0.65625 0.21875
vt 0.65625 0.21875
vt 0.65625 0.21875
vt 0.65625 0.21875
vt 0.65625 0.21875
vt 0.65625 0.21875
vt 0.65625 0.21875
vt 0.65625 0.21875
vt 0.65625 0.21875
vt 0.65625 0.21875
vt 0.65625 0.21875
vt 0.65625 0.21875
vt 0.65625 0.21875
vt 0.65625 0.21875
vt 0.65625 0.21875
vt 0.65625 0.21875
vt 0.65625 0.21875
vt 0.65625 0.21875
vt 0.65625 0.21875
vt 0.65625 0.21875
vt 0.65625 0.21875
vt 0.65625 0.21875
vt 0.65625 0.21875
vt 0.65625 0.21875
vt 0.65625 0.21875
vt 0.65625 0.21875
vt 0.65625 0.21875
vt 0.65625 0.21875
vt 0.65625 0.21875
vt 0.65625 0.21875
vt 0.65625 0.21875
vt 0.65625 0.21875
vt 0.65625 0.21875
vt 0.65625 0.21875
vt 0.65625 0.21875
vt 0.65625 0.21875
vt 0.71875 0.21875
vt 0.71875 0.21875
vt 0.71875 0.21875
vt 0.71875 0.21875
vt 0.71875 0.21875
vt 0.71875 0.21875
vt 0.71875 0.21875
vt 0.71875 0.21875
vt 0.65625 0.21875
vt 0.65625 0.21875
vt 0.65625 0.21875
vt 0.65625 0.21875
vt 0.65625 0.21875
vt 0.65625 0.21875
vt 0.65625 0.21875
vt 0.65625 0.21875
vt 0.78125 0.21875
vt 0.78125 0.21875
vt 0.78125 0.21875
vt 0.78125 0.21875
vt 0.78125 0.21875
vt 0.78125 0.21875
vt 0.78125 0.21875
vt 0.78125 0.21875
vt 0.78125 0.21875
vt 0.78125 0.21875
vt 0.78125 0.21875
vt 0.78125 0.21875
vt 0.78125 0.21875
vt 0.78125 0.21875
vt 0.78125 0.21875
vt 0.78125 0.21875
vt 0.65625 0.21875
vt 0.65625 0.21875
vt 0.65625 0.21875
vt 0.65625 0.21875
vt 0.65625 0.21875
vt 0.65625 0.21875
vt 0.65625 0.21875
vt 0.65625 0.21875
vt 0.71875 0.21875
vt 0.71875 0.21875
vt 0.71875 0.21875
vt 0.71875 0.21875
vt 0.71875 0.21875
vt 0.71875 0.21875
vt 0.71875 0.21875
vt 0.71875 0.21875
vt 0.65625 0.21875
vt 0.65625 0.21875
vt 0.65625 0.21875
vt 0.65625 0.21875
vt 0.65625 0.21875
vt 0.65625 0.21875
vt 0.65625 0.21875
vt 0.65625 0.21875
vt 0.65625 0.21875
vt 0.65625 0.21875
vt 0.65625 0.21875
vt 0.65625 0.21875
vt 0.65625 0.21875
vt 0.65625 0.21875
vt 0.65625 0.21875
vt 0.65625 0.21875
vt 0.65625 0.21875
vt 0.65625 0.21875
vt 0.65625 0.21875
vt 0.65625 0.21875
vt 0.65625 0.21875
vt 0.65625 0.21875
vt 0.65625 0.21875
vt 0.65625 0.21875
vt 0.65625 0.21875
vt 0.65625 0.21875
vt 0.65625 0.21875
vt 0.65625 0.21875
vt 0.65625 0.21875
vt 0.65625 0.21875
vt 0.65625 0.21875
vt 0.65625 0.21875
vt 0.65625 0.21875
vt 0.65625 0.21875
vt 0.65625 0.21875
vt 0.65625 0.21875
vt 0.65625 0.21875
vt 0.65625 0.21875
vt 0.65625 0.21875
vt 0.65625 0.21875
vt 0.65625 0.21875
vt 0.65625 0.21875
vt 0.65625 0.21875
vt 0.65625 0.21875
vt 0.65625 0.21875
vt 0.65625 0.21875
vt 0.65625 0.21875
vt 0.65625 0.21875
vt 0.65625 0.21875
vt 0.65625 0.21875
vt 0.65625 0.21875
vt 0.65625 0.21875
vt 0.65625 0.21875
vt 0.65625 0.21875
vt 0.65625 0.21875
vt 0.65625 0.21875
vt 0.65625 0.21875
vt 0.65625 0.21875
vt 0.65625 0.21875
vt 0.65625 0.21875
vt 0.71875 0.21875
vt 0.71875 0.21875
vt 0.71875 0.21875
vt 0.71875 0.21875
vt 0.71875 0.21875
vt 0.71875 0.21875
vt 0.71875 0.21875
vt 0.71875 0.21875
vt 0.65625 0.21875
vt 0.65625 0.21875
vt 0.65625 0.21875
vt 0.65625 0.21875
vt 0.65625 0.21875
vt 0.65625 0.21875
vt 0.65625 0.21875
vt 0.65625 0.21875
vt 0.78125 0.21875
vt 0.78125 0.21875
vt 0.78125 0.21875
vt 0.78125 0.21875
vt 0.78125 0.21875
vt 0.78125 0.21875
vt 0.78125 0.21875
vt 0.78125 0.21875
vt 0.78125 0.21875
vt 0.78125 0.21875
vt 0.78125 0.21875
vt 0.78125 0.21875
vt 0.78125 0.21875
vt 0.78125 0.21875
vt 0.78125 0.21875
vt 0.78125 0.21875
vt 0.65625 0.21875
vt 0.65625 0.21875
vt 0.65625 0.21875
vt 0.65625 0.21875
vt 0.65625 0.21875
vt 0.65625 0.21875
vt 0.65625 0.21875
vt 0.65625 0.21875
vt 0.71875 0.21875
vt 0.71875 0.21875
vt 0.71875 0.21875
vt 0.71875 0.21875
vt 0.71875 0.21875
vt 0.71875 0.21875
vt 0.71875 0.21875
vt 0.71875 0.21875
vt 0.78125 0.21875
vt 0.78125 0.21875
vt 0.78125 0.21875
vt 0.78125 0.21875
vt 0.78125 0.21875
vt 0.78125 0.21875
vt 0.78125 0.21875
vt 0.78125 0.21875
vt 0.78125 0.21875
vt 0.78125 0.21875
vt 0.78125 0.21875
vt 0.78125 0.21875
vt 0.78125 0.21875
vt 0.78125 0.21875
vt 0.78125 0.21875
vt 0.78125 0.21875
vt 0.78125 0.21875
vt 0.78125 0.21875
vt 0.71875 0.21875
vt 0.71875 0.21875
vt 0.71875 0.21875
vt 0.71875 0.21875
vt 0.71875 0.21875
vt 0.71875 0.21875
vt 0.71875 0.21875
vt 0.71875 0.21875
vt 0.71875 0.21875
vt 0.71875 0.21875
vt 0.71875 0.21875
vt 0.71875 0.21875
vt 0.71875 0.21875
vt 0.71875 0.21875
vt 0.71875 0.21875
vt 0.71875 0.21875
vt 0.71875 0.21875
vt 0.71875 0.21875
vt 0.65625 0.21875
vt 0.65625 0.21875
vt 0.65625 0.21875
vt 0.65625 0.21875
vt 0.65625 0.21875
vt 0.65625 0.21875
vt 0.65625 0.21875
vt 0.65625 0.21875
vt 0.65625 0.21875
vt 0.65625 0.21875
vt 0.65625 0.21875
vt 0.65625 0.21875
vt 0.65625 0.21875
vt 0.65625 0.21875
vt 0.65625 0.21875
vt 0.65625 0.21875
vt 0.65625 0.21875
vt 0.65625 0.21875
vt 0.65625 0.21875
vt 0.65625 0.21875
vt 0.65625 0.21875
vt 0.65625 0.21875
vt 0.65625 0.21875
vt 0.65625 0.21875
vt 0.65625 0.21875
vt 0.65625 0.21875
vt 0.65625 0.21875
vt 0.65625 0.21875
vt 0.65625 0.21875
vt 0.65625 0.21875
vt 0.65625 0.21875
vt 0.65625 0.21875
vt 0.96875 0.21875
vt 0.96875 0.21875
vt 0.96875 0.21875
vt 0.96875 0.21875
vt 0.96875 0.21875
vt 0.96875 0.21875
vt 0.96875 0.21875
vt 0.96875 0.21875
vt 0.96875 0.21875
vt 0.96875 0.21875
vt 0.96875 0.21875
vt 0.96875 0.21875
vt 0.96875 0.21875
vt 0.96875 0.21875
vt 0.96875 0.21875
vt 0.96875 0.21875
vt 0.96875 0.21875
vt 0.96875 0.21875
vt 0.96875 0.21875
vt 0.96875 0.21875
vt 0.96875 0.21875
vt 0.96875 0.21875
vt 0.96875 0.21875
vt 0.96875 0.21875
vt 0.96875 0.21875
vt 0.96875 0.21875
vt 0.96875 0.21875
vt 0.96875 0.21875
vt 0.96875 0.21875
vt 0.96875 0.21875
vt 0.96875 0.21875
vt 0.96875 0.21875
vt 0.96875 0.21875
vt 0.96875 0.21875
vt 0.96875 0.21875
vt 0.96875 0.21875
vt 0.96875 0.21875
vt 0.96875 0.21875
vt 0.96875 0.21875
vt 0.96875 0.21875
vt 0.96875 0.21875
vt 0.96875 0.21875
vt 0.96875 0.21875
vt 0.96875 0.21875
vt 0.96875 0.21875
vt 0.96875 0.21875
vt 0.96875 0.21875
vt 0.96875 0.21875
vt 0.96875 0.21875
vt 0.96875 0.21875
vt 0.96875 0.21875
vt 0.96875 0.21875
vt 0.96875 0.21875
vt 0.96875 0.21875
vt 0.96875 0.21875
vt 0.96875 0.21875
vt 0.96875 0.21875
vt 0.96875 0.21875
vt 0.96875 0.21875
vt 0.96875 0.21875
vt 0.96875 0.21875
vt 0.96875 0.21875
vt 0.96875 0.21875
vt 0.96875 0.21875
vt 0.96875 0.21875
vt 0.96875 0.21875
vt 0.96875 0.21875
vt 0.96875 0.21875
vt 0.65625 0.15625
vt 0.65625 0.15625
vt 0.65625 0.15625
vt 0.65625 0.15625
vt 0.96875 0.21875
vt 0.96875 0.21875
vt 0.96875 0.21875
vt 0.96875 0.21875
vt 0.71875 0.15625
vt 0.71875 0.15625
vt 0.71875 0.15625
vt 0.71875 0.15625
vt 0.71875 0.15625
vt 0.71875 0.15625
vt 0.71875 0.15625
vt 0.71875 0.15625
vt 0.65625 0.15625
vt 0.65625 0.15625
vt 0.65625 0.15625
vt 0.65625 0.15625
vt 0.96875 0.21875
vt 0.96875 0.21875
vt 0.96875 0.21875
vt 0.96875 0.21875
vt 0.71875 0.15625
vt 0.71875 0.15625
vt 0.71875 0.15625
vt 0.71875 0.15625
vt 0.71875 0.15625
vt 0.71875 0.15625
vt 0.71875 0.15625
vt 0.71875 0.15625
vt 0.65625 0.15625
vt 0.65625 0.15625
vt 0.65625 0.15625
vt 0.65625 0.15625
vt 0.96875 0.21875
vt 0.96875 0.21875
vt 0.96875 0.21875
vt 0.96875 0.21875
vt 0.71875 0.15625
vt 0.71875 0.15625
vt 0.71875 0.15625
vt 0.71875 0.15625
vt 0.71875 0.15625
vt 0.71875 0.15625
vt 0.71875 0.15625
vt 0.71875 0.15625
vt 0.65625 0.15625
vt 0.65625 0.15625
vt 0.65625 0.15625
vt 0.65625 0.15625
vt 0.96875 0.21875
vt 0.96875 0.21875
vt 0.96875 0.21875
vt 0.96875 0.21875
vt 0.71875 0.15625
vt 0.71875 0.15625
vt 0.71875 0.15625
vt 0.71875 0.15625
vt 0.71875 0.15625
vt 0.71875 0.15625
vt 0.71875 0.15625
vt 0.71875 0.15625
vt 0.65625 0.15625
vt 0.65625 0.15625
vt 0.65625 0.15625
vt 0.65625 0.15625
vt 0.96875 0.21875
vt 0.96875 0.21875
vt 0.96875 0.21875
vt 0.96875 0.21875
vt 0.71875 0.15625
vt 0.71875 0.15625
vt 0.71875 0.15625
vt 0.71875 0.15625
vt 0.71875 0.15625
vt 0.71875 0.15625
vt 0.71875 0.15625
vt 0.71875 0.15625
vt 0.65625 0.15625
vt 0.65625 0.15625
vt 0.65625 0.15625
vt 0.65625 0.15625
vt 0.96875 0.21875
vt 0.96875 0.21875
vt 0.96875 0.21875
vt 0.96875 0.21875
vt 0.71875 0.15625
vt 0.71875 0.15625
vt 0.71875 0.15625
vt 0.71875 0.15625
vt 0.71875 0.15625
vt 0.71875 0.15625
vt 0.71875 0.15625
vt 0.71875 0.15625
vt 0.65625 0.15625
vt 0.65625 0.15625
vt 0.65625 0.15625
vt 0.65625 0.15625
vt 0.96875 0.21875
vt 0.96875 0.21875
vt 0.96875 0.21875
vt 0.96875 0.21875
vt 0.71875 0.15625
vt 0.71875 0.15625
vt 0.71875 0.15625
vt 0.71875 0.15625
vt 0.71875 0.15625
vt 0.71875 0.15625
vt 0.71875 0.15625
vt 0.71875 0.15625
vt 0.65625 0.15625
vt 0.65625 0.15625
vt 0.65625 0.15625
vt 0.65625 0.15625
vt 0.96875 0.21875
vt 0.96875 0.21875
vt 0.96875 0.21875
vt 0.96875 0.21875
vt 0.71875 0.15625
vt 0.71875 0.15625
vt 0.71875 0.15625
vt 0.71875 0.15625
vt 0.71875 0.15625
vt 0.71875 0.15625
vt 0.71875 0.15625
vt 0.71875 0.15625
vt 0.65625 0.15625
vt 0.65625 0.15625
vt 0.65625 0.15625
vt 0.65625 0.15625
vt 0.96875 0.21875
vt 0.96875 0.21875
vt 0.96875 0.21875
vt 0.96875 0.21875
vt 0.71875 0.15625
vt 0.71875 0.15625
vt 0.71875 0.15625
vt 0.71875 0.15625
vt 0.71875 0.15625
vt 0.71875 0.15625
vt 0.71875 0.15625
vt 0.71875 0.15625
vt 0.65625 0.15625
vt 0.65625 0.15625
vt 0.65625 0.15625
vt 0.65625 0.15625
vt 0.96875 0.21875
vt 0.96875 0.21875
vt 0.96875 0.21875
vt 0.96875 0.21875
vt 0.71875 0.15625
vt 0.71875 0.15625
vt 0.71875 0.15625
vt 0.71875 0.15625
vt 0.71875 0.15625
vt 0.71875 0.15625
vt 0.71875 0.15625
vt 0.71875 0.15625
vt 0.65625 0.15625
vt 0.65625 0.15625
vt 0.65625 0.15625
vt 0.65625 0.15625
vt 0.96875 0.21875
vt 0.96875 0.21875
vt 0.96875 0.21875
vt 0.96875 0.21875
vt 0.71875 0.15625
vt 0.71875 0.15625
vt 0.71875 0.15625
vt 0.71875 0.15625
vt 0.71875 0.15625
vt 0.71875 0.15625
vt 0.71875 0.15625
vt 0.71875 0.15625
vt 0.65625 0.15625
vt 0.65625 0.15625
vt 0.65625 0.15625
vt 0.65625 0.15625
vt 0.96875 0.21875
vt 0.96875 0.21875
vt 0.96875 0.21875
vt 0.96875 0.21875
vt 0.71875 0.15625
vt 0.71875 0.15625
vt 0.71875 0.15625
vt 0.71875 0.15625
vt 0.71875 0.15625
vt 0.71875 0.15625
vt 0.71875 0.15625
vt 0.71875 0.15625
vt 0.0078125 0.75
vt 0.0402569754 0.87109375
vt 0.12890625 0.959743025
vt 0.0078125 0.75
vt 0.12890625 0.959743025
vt 0.25 0.9921875
vt 0.0078125 0.75
vt 0.25 0.9921875
vt 0.37109375 0.959743025
vt 0.0078125 0.75
vt 0.37109375 0.959743025
vt 0.459743025 0.87109375
vt 0.0078125 0.75
vt 0.459743025 0.87109375
vt 0.4921875 0.75
vt 0.0078125 0.75
vt 0.4921875 0.75
vt 0.459743025 0.62890625
vt 0.0078125 0.75
vt 0.459743025 0.62890625
vt 0.37109375 0.540256975
vt 0.0078125 0.75
vt 0.37109375 0.540256975
vt 0.25 0.5078125
vt 0.0078125 0.75
vt 0.25 0.5078125
vt 0.12890625 0.540256975
vt 0.0078125 0.75
vt 0.12890625 0.540256975
vt 0.0402569754 0.62890625
vt 0.12890625 0.959743025
vt 0.0402569754 0.87109375
vt 0.0078125 0.75
vt 0.25 0.9921875
vt 0.12890625 0.959743025
vt 0.0078125 0.75
vt 0.37109375 0.959743025
vt 0.25 0.9921875
vt 0.0078125 0.75
vt 0.459743025 0.87109375
vt 0.37109375 0.959743025
vt 0.0078125 0.75
vt 0.4921875 0.75
vt 0.459743025 0.87109375
vt 0.0078125 0.75
vt 0.459743025 0.62890625
vt 0.4921875 0.75
vt 0.0078125 0.75
vt 0.37109375 0.540256975
vt 0.459743025 0.62890625
vt 0.0078125 0.75
vt 0.25 0.5078125
vt 0.37109375 0.540256975
vt 0.0078125 0.75
vt 0.12890625 0.540256975
vt 0.25 0.5078125
vt 0.0078125 0.75
vt 0.0402569754 0.62890625
vt 0.12890625 0.540256975
vt 0.0078125 0.75
vt 0.25 0.9921875
vt 0.12890625 0.9921875
vt 0.12890625 0.5078125
vt 0.25 0.5078125
vt 0.12890625 0.9921875
vt 0.0402569754 0.9921875
vt 0.0402569754 0.5078125
vt 0.12890625 0.5078125
vt 0.37109375 0.9921875
vt 0.25 0.9921875
vt 0.25 0.5078125
vt 0.37109375 0.5078125
vt 0.25 0.9921875
vt 0.12890625 0.9921875
vt 0.12890625 0.5078125
vt 0.25 0.5078125
vt 0.12890625 0.9921875
vt 0.0402569754 0.9921875
vt 0.0402569754 0.5078125
vt 0.12890625 0.5078125
vt 0.37109375 0.9921875
vt 0.25 0.9921875
vt 0.25 0.5078125
vt 0.37109375 0.5078125
vt 0.25 0.9921875
vt 0.12890625 0.9921875
vt 0.12890625 0.5078125
vt 0.25 0.5078125
vt 0.12890625 0.9921875
vt 0.0402569754 0.9921875
vt 0.0402569754 0.5078125
vt 0.12890625 0.5078125
vt 0.37109375 0.9921875
vt 0.25 0.9921875
vt 0.25 0.5078125
vt 0.37109375 0.5078125
vt 0.25 0.9921875
vt 0.12890625 0.9921875
vt 0.12890625 0.5078125
vt 0.25 0.5078125
vt 0.459743025 0.9921875
vt 0.37109375 0.9921875
vt 0.37109375 0.5078125
vt 0.459743025 0.5078125
vt 0.37109375 0.9921875
vt 0.25 0.9921875
vt 0.25 0.5078125
vt 0.37109375 0.5078125
vn -1 0 0
vn -1 0 0
vn -1 0 0
vn -1 0 0
vn -1 0 0
vn -1 0 0
vn -1 0 0
vn -1 0 0
vn -1 0 0
vn -1 0 0
vn 1 0 0
vn 1 0 0
vn 1 0 0
vn 1 0 0
vn 1 0 0
vn 1 0 0
vn 1 0 0
vn 1 0 0
vn 1 0 0
vn 1 0 0
vn 0 0.965924789 0.258822917
vn 0 0.707106781 0.707106781
vn 0 0.258822917 0.965924789
vn 0 -0.258822917 0.965924789
vn 0 -0.707106781 0.707106781
vn 0 -0.965924789 0.258822917
vn 0 -0.965924789 -0.258822917
vn 0 -0.707106781 -0.707106781
vn 0 -0.258822917 -0.965924789
vn 0 0.258822917 -0.965924789
vn 0 0.707106781 -0.707106781
vn 0 0.965924789 -0.258822917
vn -1 0 0
vn -1 0 0
vn -1 0 0
vn -1 0 0
vn -1 0 0
vn -1 0 0
vn -1 0 0
vn -1 0 0
vn -1 0 0
vn -1 0 0
vn 1 0 0
vn 1 0 0
vn 1 0 0
vn 1 0 0
vn 1 0 0
vn 1 0 0
vn 1 0 0
vn 1 0 0
vn 1 0 0
vn 1 0 0
vn 0 0.965931445 0.258798077
vn 0 0.707106781 0.707106781
vn 0 0.258798077 0.965931445
vn 0 -0.258798077 0.965931445
vn 0 -0.707106781 0.707106781
vn 0 -0.965931445 0.258798077
vn 0 -0.965931445 -0.258798077
vn 0 -0.707106781 -0.707106781
vn 0 -0.258798077 -0.965931445
vn 0 0.258798077 -0.965931445
vn 0 0.707106781 -0.707106781
vn 0 0.965931445 -0.258798077
vn -1 0 0
vn -1 0 0
vn -1 0 0
vn -1 0 0
vn -1 0 0
vn -1 0 0
vn -1 0 0
vn -1 0 0
vn -1 0 0
vn -1 0 0
vn 1 0 0
vn 1 0 0
vn 1 0 0
vn 1 0 0
vn 1 0 0
vn 1 0 0
vn 1 0 0
vn 1 0 0
vn 1 0 0
vn 1 0 0
vn 0 0.965931445 0.258798077
vn 0 0.707106781 0.707106781
vn 0 0.258798077 0.965931445
vn 0 -0.258798077 0.965931445
vn 0 -0.707106781 0.707106781
vn 0 -0.965931445 0.258798077
vn 0 -0.965931445 -0.258798077
vn 0 -0.707106781 -0.707106781
vn 0 -0.258798077 -0.965931445
vn 0 0.258798077 -0.965931445
vn 0 0.707106781 -0.707106781
vn 0 0.965931445 -0.258798077
vn 0 -1 0
vn 0 -1 0
vn 0 -1 0
vn 0 -1 0
vn 0 -1 0
vn 0 -1 0
vn 0 1 0
vn 0 1 0
vn 0 1 0
vn 0 1 0
vn 0 1 0
vn 0 1 0
vn 0 0 -1
vn 0.707106781 0 -0.707106781
vn 1 0 0
vn 0.707106781 0 0.707106781
vn 0 0 1
vn -0.707106781 0 0.707106781
vn -1 0 0
vn -0.707106781 0 -0.707106781
vn 0 -1 0
vn 0 -1 0
vn 0 -1 0
vn 0 -1 0
vn 0 -1 0
vn 0 -1 0
vn 0 1 0
vn 0 1 0
vn 0 1 0
vn 0 1 0
vn 0 1 0
vn 0 1 0
vn 0 0 -1
vn 0.707106781 0 -0.707106781
vn 1 0 0
vn 0.707106781 0 0.707106781
vn 0 0 1
vn -0.707106781 0 0.707106781
vn -1 0 0
vn -0.707106781 0 -0.707106781
vn 0.965924789 0 0.258822917
vn -0.965930211 0 -0.258802681
vn 0 -1 0
vn 0 1 0
vn 0.707106781 0 0.707106781
vn -0.707106781 0 -0.707106781
vn 0 -1 0
vn 0 1 0
vn 0.258822917 0 0.965924789
vn -0.258802681 0 -0.965930211
vn 0 -1 0
vn 0 1 0
vn -0.258822917 0 0.965924789
vn 0.258802681 0 -0.965930211
vn 0 -1 0
vn 0 1 0
vn -0.707106781 0 0.707106781
vn 0.707106781 0 -0.707106781
vn 0 -1 0
vn 0 1 0
vn -0.965924789 0 0.258822917
vn 0.965930211 0 -0.258802681
vn 0 -1 0
vn 0 1 0
vn -0.965924789 0 -0.258822917
vn 0.965930211 0 0.258802681
vn 0 -1 0
vn 0 1 0
vn -0.707106781 0 -0.707106781
vn 0.707106781 0 0.707106781
vn 0 -1 0
vn 0 1 0
vn -0.258822917 0 -0.965924789
vn 0.258802681 0 0.965930211
vn 0 -1 0
vn 0 1 0
vn 0.258822917 0 -0.965924789
vn -0.258802681 0 0.965930211
vn 0 -1 0
vn 0 1 0
vn 0.707106781 0 -0.707106781
vn -0.707106781 0 0.707106781
vn 0 -1 0
vn 0 1 0
vn 0.965924789 0 -0.258822917
vn -0.965930211 0 0.258802681
vn 0 -1 0
vn 0 1 0
vn 0 -1 0
vn 0 -1 0
vn 0 -1 0
vn 0 -1 0
vn 0 -1 0
vn 0 -1 0
vn 0 -1 0
vn 0 -1 0
vn 0 -1 0
vn 0 -1 0
vn 0 1 0
vn 0 1 0
vn 0 1 0
vn 0 1 0
vn 0 1 0
vn 0 1 0
vn 0 1 0
vn 0 1 0
vn 0 1 0
vn 0 1 0
vn 0.965930806 0 0.258800461
vn 0.707106781 0 0.707106781
vn 0.258800461 0 0.965930806
vn -0.258800461 0 0.965930806
vn -0.707106781 0 0.707106781
vn -0.965930806 0 0.258800461
vn -0.965930806 0 -0.258800461
vn -0.707106781 0 -0.707106781
vn -0.258800461 0 -0.965930806
vn 0.258800461 0 -0.965930806
vn 0.707106781 0 -0.707106781
vn 0.965930806 0 -0.258800461
o l_transverse_pivot_0
usemtl printer_surface_atlas
f 3/1/1 2/2/1 1/3/1
f 4/4/2 3/5/2 1/6/2
f 5/7/3 4/8/3 1/9/3
f 6/10/4 5/11/4 1/12/4
f 7/13/5 6/14/5 1/15/5
f 8/16/6 7/17/6 1/18/6
f 9/19/7 8/20/7 1/21/7
f 10/22/8 9/23/8 1/24/8
f 11/25/9 10/26/9 1/27/9
f 12/28/10 11/29/10 1/30/10
f 13/31/11 14/32/11 15/33/11
f 13/34/12 15/35/12 16/36/12
f 13/37/13 16/38/13 17/39/13
f 13/40/14 17/41/14 18/42/14
f 13/43/15 18/44/15 19/45/15
f 13/46/16 19/47/16 20/48/16
f 13/49/17 20/50/17 21/51/17
f 13/52/18 21/53/18 22/54/18
f 13/55/19 22/56/19 23/57/19
f 13/58/20 23/59/20 24/60/20
f 1/61/21 2/62/21 14/63/21 13/64/21
f 2/65/22 3/66/22 15/67/22 14/68/22
f 3/69/23 4/70/23 16/71/23 15/72/23
f 4/73/24 5/74/24 17/75/24 16/76/24
f 5/77/25 6/78/25 18/79/25 17/80/25
f 6/81/26 7/82/26 19/83/26 18/84/26
f 7/85/27 8/86/27 20/87/27 19/88/27
f 8/89/28 9/90/28 21/91/28 20/92/28
f 9/93/29 10/94/29 22/95/29 21/96/29
f 10/97/30 11/98/30 23/99/30 22/100/30
f 11/101/31 12/102/31 24/103/31 23/104/31
f 12/105/32 1/106/32 13/107/32 24/108/32
o l_pivot_end_cap_1
f 27/109/33 26/110/33 25/111/33
f 28/112/34 27/113/34 25/114/34
f 29/115/35 28/116/35 25/117/35
f 30/118/36 29/119/36 25/120/36
f 31/121/37 30/122/37 25/123/37
f 32/124/38 31/125/38 25/126/38
f 33/127/39 32/128/39 25/129/39
f 34/130/40 33/131/40 25/132/40
f 35/133/41 34/134/41 25/135/41
f 36/136/42 35/137/42 25/138/42
f 37/139/43 38/140/43 39/141/43
f 37/142/44 39/143/44 40/144/44
f 37/145/45 40/146/45 41/147/45
f 37/148/46 41/149/46 42/150/46
f 37/151/47 42/152/47 43/153/47
f 37/154/48 43/155/48 44/156/48
f 37/157/49 44/158/49 45/159/49
f 37/160/50 45/161/50 46/162/50
f 37/163/51 46/164/51 47/165/51
f 37/166/52 47/167/52 48/168/52
f 25/169/53 26/170/53 38/171/53 37/172/53
f 26/173/54 27/174/54 39/175/54 38/176/54
f 27/177/55 28/178/55 40/179/55 39/180/55
f 28/181/56 29/182/56 41/183/56 40/184/56
f 29/185/57 30/186/57 42/187/57 41/188/57
f 30/189/58 31/190/58 43/191/58 42/192/58
f 31/193/59 32/194/59 44/195/59 43/196/59
f 32/197/60 33/198/60 45/199/60 44/200/60
f 33/201/61 34/202/61 46/203/61 45/204/61
f 34/205/62 35/206/62 47/207/62 46/208/62
f 35/209/63 36/210/63 48/211/63 47/212/63
f 36/213/64 25/214/64 37/215/64 48/216/64
o l_pivot_end_cap_2
f 51/217/65 50/218/65 49/219/65
f 52/220/66 51/221/66 49/222/66
f 53/223/67 52/224/67 49/225/67
f 54/226/68 53/227/68 49/228/68
f 55/229/69 54/230/69 49/231/69
f 56/232/70 55/233/70 49/234/70
f 57/235/71 56/236/71 49/237/71
f 58/238/72 57/239/72 49/240/72
f 59/241/73 58/242/73 49/243/73
f 60/244/74 59/245/74 49/246/74
f 61/247/75 62/248/75 63/249/75
f 61/250/76 63/251/76 64/252/76
f 61/253/77 64/254/77 65/255/77
f 61/256/78 65/257/78 66/258/78
f 61/259/79 66/260/79 67/261/79
f 61/262/80 67/263/80 68/264/80
f 61/265/81 68/266/81 69/267/81
f 61/268/82 69/269/82 70/270/82
f 61/271/83 70/272/83 71/273/83
f 61/274/84 71/275/84 72/276/84
f 49/277/85 50/278/85 62/279/85 61/280/85
f 50/281/86 51/282/86 63/283/86 62/284/86
f 51/285/87 52/286/87 64/287/87 63/288/87
f 52/289/88 53/290/88 65/291/88 64/292/88
f 53/293/89 54/294/89 66/295/89 65/296/89
f 54/297/90 55/298/90 67/299/90 66/300/90
f 55/301/91 56/302/91 68/303/91 67/304/91
f 56/305/92 57/306/92 69/307/92 68/308/92
f 57/309/93 58/310/93 70/311/93 69/312/93
f 58/313/94 59/314/94 71/315/94 70/316/94
f 59/317/95 60/318/95 72/319/95 71/320/95
f 60/321/96 49/322/96 61/323/96 72/324/96
o l_optical_head_body_3
f 73/325/97 74/326/97 75/327/97
f 73/328/98 75/329/98 76/330/98
f 73/331/99 76/332/99 77/333/99
f 73/334/100 77/335/100 78/336/100
f 73/337/101 78/338/101 79/339/101
f 73/340/102 79/341/102 80/342/102
f 83/343/103 82/344/103 81/345/103
f 84/346/104 83/347/104 81/348/104
f 85/349/105 84/350/105 81/351/105
f 86/352/106 85/353/106 81/354/106
f 87/355/107 86/356/107 81/357/107
f 88/358/108 87/359/108 81/360/108
f 81/361/109 82/362/109 74/363/109 73/364/109
f 82/365/110 83/366/110 75/367/110 74/368/110
f 83/369/111 84/370/111 76/371/111 75/372/111
f 84/373/112 85/374/112 77/375/112 76/376/112
f 85/377/113 86/378/113 78/379/113 77/380/113
f 86/381/114 87/382/114 79/383/114 78/384/114
f 87/385/115 88/386/115 80/387/115 79/388/115
f 88/389/116 81/390/116 73/391/116 80/392/116
o l_optical_head_inset_collar_4
f 89/393/117 90/394/117 91/395/117
f 89/396/118 91/397/118 92/398/118
f 89/399/119 92/400/119 93/401/119
f 89/402/120 93/403/120 94/404/120
f 89/405/121 94/406/121 95/407/121
f 89/408/122 95/409/122 96/410/122
f 99/411/123 98/412/123 97/413/123
f 100/414/124 99/415/124 97/416/124
f 101/417/125 100/418/125 97/419/125
f 102/420/126 101/421/126 97/422/126
f 103/423/127 102/424/127 97/425/127
f 104/426/128 103/427/128 97/428/128
f 97/429/129 98/430/129 90/431/129 89/432/129
f 98/433/130 99/434/130 91/435/130 90/436/130
f 99/437/131 100/438/131 92/439/131 91/440/131
f 100/441/132 101/442/132 93/443/132 92/444/132
f 101/445/133 102/446/133 94/447/133 93/448/133
f 102/449/134 103/450/134 95/451/134 94/452/134
f 103/453/135 104/454/135 96/455/135 95/456/135
f 104/457/136 97/458/136 89/459/136 96/460/136
o l_hollow_emitter_bezel_5
f 105/461/137 117/462/137 118/463/137 106/464/137
f 129/465/138 130/466/138 142/467/138 141/468/138
f 105/469/139 106/470/139 130/471/139 129/472/139
f 117/473/140 141/474/140 142/475/140 118/476/140
f 106/477/141 118/478/141 119/479/141 107/480/141
f 130/481/142 131/482/142 143/483/142 142/484/142
f 106/485/143 107/486/143 131/487/143 130/488/143
f 118/489/144 142/490/144 143/491/144 119/492/144
f 107/493/145 119/494/145 120/495/145 108/496/145
f 131/497/146 132/498/146 144/499/146 143/500/146
f 107/501/147 108/502/147 132/503/147 131/504/147
f 119/505/148 143/506/148 144/507/148 120/508/148
f 108/509/149 120/510/149 121/511/149 109/512/149
f 132/513/150 133/514/150 145/515/150 144/516/150
f 108/517/151 109/518/151 133/519/151 132/520/151
f 120/521/152 144/522/152 145/523/152 121/524/152
f 109/525/153 121/526/153 122/527/153 110/528/153
f 133/529/154 134/530/154 146/531/154 145/532/154
f 109/533/155 110/534/155 134/535/155 133/536/155
f 121/537/156 145/538/156 146/539/156 122/540/156
f 110/541/157 122/542/157 123/543/157 111/544/157
f 134/545/158 135/546/158 147/547/158 146/548/158
f 110/549/159 111/550/159 135/551/159 134/552/159
f 122/553/160 146/554/160 147/555/160 123/556/160
f 111/557/161 123/558/161 124/559/161 112/560/161
f 135/561/162 136/562/162 148/563/162 147/564/162
f 111/565/163 112/566/163 136/567/163 135/568/163
f 123/569/164 147/570/164 148/571/164 124/572/164
f 112/573/165 124/574/165 125/575/165 113/576/165
f 136/577/166 137/578/166 149/579/166 148/580/166
f 112/581/167 113/582/167 137/583/167 136/584/167
f 124/585/168 148/586/168 149/587/168 125/588/168
f 113/589/169 125/590/169 126/591/169 114/592/169
f 137/593/170 138/594/170 150/595/170 149/596/170
f 113/597/171 114/598/171 138/599/171 137/600/171
f 125/601/172 149/602/172 150/603/172 126/604/172
f 114/605/173 126/606/173 127/607/173 115/608/173
f 138/609/174 139/610/174 151/611/174 150/612/174
f 114/613/175 115/614/175 139/615/175 138/616/175
f 126/617/176 150/618/176 151/619/176 127/620/176
f 115/621/177 127/622/177 128/623/177 116/624/177
f 139/625/178 140/626/178 152/627/178 151/628/178
f 115/629/179 116/630/179 140/631/179 139/632/179
f 127/633/180 151/634/180 152/635/180 128/636/180
f 116/637/181 128/638/181 117/639/181 105/640/181
f 140/641/182 129/642/182 141/643/182 152/644/182
f 116/645/183 105/646/183 129/647/183 140/648/183
f 128/649/184 152/650/184 141/651/184 117/652/184
o l_recessed_optical_lens_6
usemtl printer_optics
f 153/653/185 154/654/185 155/655/185
f 153/656/186 155/657/186 156/658/186
f 153/659/187 156/660/187 157/661/187
f 153/662/188 157/663/188 158/664/188
f 153/665/189 158/666/189 159/667/189
f 153/668/190 159/669/190 160/670/190
f 153/671/191 160/672/191 161/673/191
f 153/674/192 161/675/192 162/676/192
f 153/677/193 162/678/193 163/679/193
f 153/680/194 163/681/194 164/682/194
f 167/683/195 166/684/195 165/685/195
f 168/686/196 167/687/196 165/688/196
f 169/689/197 168/690/197 165/691/197
f 170/692/198 169/693/198 165/694/198
f 171/695/199 170/696/199 165/697/199
f 172/698/200 171/699/200 165/700/200
f 173/701/201 172/702/201 165/703/201
f 174/704/202 173/705/202 165/706/202
f 175/707/203 174/708/203 165/709/203
f 176/710/204 175/711/204 165/712/204
f 165/713/205 166/714/205 154/715/205 153/716/205
f 166/717/206 167/718/206 155/719/206 154/720/206
f 167/721/207 168/722/207 156/723/207 155/724/207
f 168/725/208 169/726/208 157/727/208 156/728/208
f 169/729/209 170/730/209 158/731/209 157/732/209
f 170/733/210 171/734/210 159/735/210 158/736/210
f 171/737/211 172/738/211 160/739/211 159/740/211
f 172/741/212 173/742/212 161/743/212 160/744/212
f 173/745/213 174/746/213 162/747/213 161/748/213
f 174/749/214 175/750/214 163/751/214 162/752/214
f 175/753/215 176/754/215 164/755/215 163/756/215
f 176/757/216 165/758/216 153/759/216 164/760/216
